<?xml version="1.0" encoding="UTF-8"?>
<svg id="Layer_2" data-name="Layer 2" xmlns="http://www.w3.org/2000/svg" viewBox="0 0 416.78 431.16">
  <defs>
    <style>
      .cls-1 {
        fill: #742f8a;
        stroke-width: 0px;
      }
    </style>
  </defs>
  <g id="Layer_1-2" data-name="Layer 1">
    <g>
      <g>
        <path class="cls-1" d="M320.93,233.89v60.53c0,15.37,0,16.35,11.12,17.67v4.74h-36.64v-4.9c11.13-1.31,11.13-2.45,11.13-17.66v-35.01c-.49-8.67,1.58-7.85-9.17-4.43"/>
        <path class="cls-1" d="M356.58,271.84c0,16.03,4.74,39.75,25.19,39.75,10.96,0,20.44-6.05,26.82-14.88l2.78,2.61c-6.87,11.29-18.32,19.3-31.73,19.3-22.9,0-39.58-18.64-39.58-41.05,0-20.94,14.56-42.53,37.46-42.53,20.45,0,34.51,17.5,34.51,36.8h-55.45ZM395.51,265.62c.98-11.28-3.92-25.19-18.16-25.19s-19.63,14.07-19.96,25.19h38.11Z"/>
        <path class="cls-1" d="M118.27,156.72c-19.4,15.34-33.84,38.81-36.09,57.31-1.8,15.34,3.15,27.97,19.4,28.87,17.14.9,35.19-13.99,47.82-27.52,9.93-10.83,18.95-27.07,19.85-36.55.45-4.51,0-8.12-2.25-11.73-.9-1.8-1.81-2.26-1.36-3.16.46-.9,2.26,0,3.61,1.36,1.36,1.35,5.87,6.76,4.96,17.14-.45,12.19-8.58,26.62-18.5,37.9-11.73,12.63-34.74,27.97-55.04,26.62-20.31-1.35-30.23-14.44-27.98-33.84,2.25-18.05,17.6-41.51,41.51-59.56,21.65-16.24,48.73-27.52,72.19-27.52,25.73,0,54.61,9.93,50.09,47.38-2.71,27.53-50.99,87.99-80.77,117.76v.45c14.44-9.93,29.33-21.21,51.43-37.45,18.96-13.53,41.53-30.22,55.96-41.5,5.42-15.34,11.73-31.59,19.86-44.67,10.83-17.15,22.55-25.72,32.03-25.72,8.12,0,13.99,7.22,10.38,18.05-5.86,18.5-28.87,34.29-41.06,46.02-6.77,27.97-15.34,65.88-29.78,85.28v.45c15.33-14.89,54.14-47.38,81.21-71.74,43.32-39.26,59.11-68.58,61.82-84.38.9-6.32.45-12.18-2.71-15.34-3.15-2.71-6.32-1.8-5.87-3.16.45-.9,3.16-1.35,4.51-1.35,13.09,0,19.4,10.38,18.5,22.11-2.25,18.5-21.66,46.93-71.74,87.99-35.65,29.33-70.84,58.65-100.16,86.63-2.71,2.71-7.22,6.77-12.63,6.77-4.52,0-4.52-4.06-1.81-7.67,15.34-20.76,24.81-65.42,35.19-91.14v-.45c-8.57,7.22-36.09,27.97-58.22,44.22-18.95,13.53-59.1,42.87-75.8,53.69-2.71,1.81-6.32,4.51-9.48,4.51-5.42,0-6.77-3.61-2.71-8.57,17.15-18.05,37.45-40.61,57.3-68.58,19.85-27.97,37.46-58.21,41.07-81.22,3.61-23.46-9.03-34.29-27.53-34.29-22.56,0-48.28,12.18-67.23,26.62ZM319.96,160.78c3.16-8.57,0-13.99-5.86-13.99-6.77,0-13.54,9.92-16.24,16.24-4.96,10.38-9.47,25.27-12.18,35.2,8.57-8.12,28.42-22.56,34.29-37.45Z"/>
        <path class="cls-1" d="M320.1,222.91c0,4.48-3.64,8.12-8.12,8.12s-8.13-3.64-8.13-8.12,3.64-8.13,8.13-8.13,8.12,3.63,8.12,8.13Z"/>
        <g>
          <path class="cls-1" d="M2.03,275.57c.76,4.37,1.17,4.78,2.21,4.85.99.12,3.05.12,9.37-.35l10.8-.81c3.24-.24,5.93-.54,7.76-.82,1.34-.2,1.53-.61,1.64-1.35.07-.5.11-2.12.19-2.57.08-.35.12-.55.28-.56.38-.03,1.37.2,1.54.28.19,3.97.28,5.98.47,7.78.16,2.15.51,4.63.57,4.78.02.29-.17.56-.39.62-.53.19-1.01.32-1.33.3-.37-3.47-.72-4.52-2.19-4.61-.87.02-2.78-.09-8.82.36l-12.91.96c-7.07.53-7.61.62-7.86,2.31-.01.54-.07,1.28-.02,2.66.02.19-.14.3-.3.32-.16.01-.38-.02-.83-.18-.39-.17-.5-.21-.57-.35-.08-.39-.11-.68-.15-1.27-.04-.58-.11-2.25-.3-4.8-.24-2.54-.55-5.86-.58-6.35-.05-.64,0-.69.16-.75l1.27-.44Z"/>
          <path class="cls-1" d="M16.68,258.12c.03-2.21,0-3.87-.09-5.1-.17-2.95-.38-3.19-3.57-3.88-.16-.2-.25-1.33-.19-1.57,1.57.12,4.06.45,5.73.48,1.84-.02,3.36-.15,4.93-.27.1.39.15.79.15,1.13.05.25-.11.34-.33.44-.6.19-1.47.42-2.12.56-1.47.27-1.96.85-2.16,2.81-.12,1.08-.15,2.7-.19,5.2-.04,2.45,0,2.94.06,3.24.05.2.1.35.32.5.32.15,2.21.47,6.65.54,3.95.06,5.42.09,6.29-.39,1.04-.67,1.34-2.38,1.4-6.41.09-5.74-.47-8.49-6.18-10.1-.05-.2,0-.69.07-1.18.11-.14.17-.14.44-.14,2.49.14,5.94.97,7.5,1.64.32.25.43.4.42.64,0,.34-.01.69-.09,2.3-.08,1.47-.18,4.9-.24,8.97-.06,3.92.1,7.8.2,11.73-.06.1-1.19.13-1.63.07-.11,0-.21-.15-.21-.2-.4-2.26-.77-2.46-1.59-2.52-.81-.11-4.27-.41-9.79-.5l-9.37-.14c-7.2-.11-9.59.15-9.92.19-.33.04-.6.14-.71.62-.22.49-.4,1.42-.74,2.59q-.05.05-.22.05l-1.24-.12c-.22,0-.27,0-.27-.25l.03-1.71c.02-1.52.16-3.38.26-6.37l.07-4.76c.05-2.99-.17-6.58-.19-9.03.01-.64.12-.93.29-1.17q.33-.44,1.3-.23c2.38.43,5.52.52,6.93.55-.02,1.27-.19,1.47-.51,1.51-3.91.63-5.86.94-5.92,4.76l-.05,3.38c-.05,2.89.04,4.51.19,5.05.21.64.75.75,1.99.77,3.79.06,7.58.07,11.37.07.49,0,.87-.28.88-.63l.05-3.14Z"/>
          <path class="cls-1" d="M18.78,227.25c.28-2.19.44-3.85.49-5.08.16-2.94-.02-3.21-3.11-4.26-.14-.21-.1-1.35-.01-1.58,1.55.3,3.98.91,5.64,1.12,1.83.19,3.36.24,4.93.29.06.4.06.8.02,1.14.02.25-.15.33-.38.4-.62.11-1.51.25-2.17.31-1.49.1-2.05.62-2.46,2.55-.24,1.05-.45,2.66-.77,5.14-.32,2.43-.32,2.92-.31,3.22.03.2.06.36.26.53.31.19,2.15.72,6.55,1.29,3.92.51,5.37.69,6.29.32,1.11-.55,1.6-2.22,2.11-6.21.73-5.69.5-8.49-5-10.73-.03-.2.09-.68.2-1.16.13-.13.18-.12.45-.09,2.46.42,5.8,1.64,7.27,2.47.29.28.38.45.35.69-.04.34-.09.68-.35,2.28-.24,1.45-.73,4.85-1.26,8.88-.5,3.89-.78,7.76-1.12,11.67-.07.09-1.2,0-1.62-.11-.11-.01-.2-.17-.19-.22-.14-2.29-.49-2.53-1.29-2.69-.79-.2-4.2-.89-9.68-1.59l-9.29-1.2c-7.14-.92-9.54-.94-9.87-.93-.33,0-.61.07-.78.55-.28.46-.56,1.36-1.03,2.49q-.06.04-.22.02l-1.22-.25c-.22-.03-.27-.04-.24-.28l.22-1.7c.19-1.51.54-3.34.98-6.3l.61-4.72c.38-2.97.57-6.55.83-8.99.08-.63.23-.91.42-1.13q.38-.4,1.32-.08c2.31.7,5.42,1.15,6.82,1.33-.16,1.26-.35,1.44-.68,1.44-3.96.18-5.93.27-6.42,4.07l-.43,3.35c-.37,2.87-.47,4.49-.38,5.04.13.66.66.83,1.89.98,3.76.49,7.53.92,11.29,1.36.48.06.9-.18.94-.52l.4-3.12Z"/>
          <path class="cls-1" d="M24.39,196.81c.53-2.14.88-3.77,1.07-4.99.5-2.91.35-3.2-2.6-4.59-.11-.23.06-1.35.17-1.58,1.5.47,3.85,1.36,5.48,1.77,1.8.4,3.31.62,4.87.86.01.41-.03.8-.12,1.13,0,.25-.19.31-.42.35-.63.05-1.53.08-2.19.06-1.49-.07-2.11.39-2.74,2.25-.37,1.02-.76,2.59-1.36,5.02-.59,2.38-.66,2.87-.68,3.17,0,.2.02.36.2.55.28.22,2.05.97,6.36,2.04,3.84.95,5.25,1.31,6.21,1.04,1.16-.42,1.84-2.02,2.81-5.92,1.38-5.57,1.47-8.38-3.73-11.24,0-.2.17-.67.34-1.13.14-.12.19-.1.46-.04,2.39.7,5.57,2.29,6.94,3.29.26.32.33.49.27.72-.08.33-.17.67-.61,2.22-.41,1.42-1.29,4.73-2.27,8.68-.95,3.81-1.67,7.62-2.46,11.47-.08.08-1.19-.14-1.6-.29-.11-.03-.17-.19-.16-.24.13-2.29-.2-2.58-.97-2.82-.76-.29-4.07-1.37-9.43-2.7l-9.09-2.26c-6.99-1.74-9.37-2.03-9.7-2.06-.33-.03-.61,0-.84.45-.33.42-.71,1.29-1.31,2.35q-.06.04-.22,0l-1.19-.4c-.21-.05-.26-.07-.2-.3l.41-1.67c.37-1.48.92-3.26,1.7-6.15l1.15-4.62c.72-2.9,1.32-6.44,1.86-8.84.15-.62.33-.88.55-1.08q.42-.35,1.32.08c2.22.96,5.25,1.76,6.62,2.1-.31,1.24-.51,1.39-.84,1.36-3.95-.28-5.92-.41-6.85,3.3l-.82,3.28c-.7,2.81-.98,4.4-.96,4.97.06.67.56.89,1.77,1.2,3.68.91,7.37,1.78,11.06,2.65.47.12.91-.08,1-.41l.76-3.04Z"/>
          <path class="cls-1" d="M48.23,160.78c-4.42-.46-12.03-1.39-23.6-2.38-3.77-.31-4.05-.34-5.39,1.79-.18.24-.25.26-.44.17-.1-.05-.58-.66-.71-.89-.13-.23-.14-.45,0-.76.41-.84,1.45-2.73,1.9-3.66.75-1.54,1.4-3.13,2.18-4.72.11-.22.87-.07,1.41.19.2.1.32.21.26.46-.66,1.86-.82,2.55-.14,2.77.36.12,1.18.3,1.97.41,8.32,1.1,19.79,2.16,24.41,2.45.29.03.53-.23.33-.44-2.54-2.82-10.11-10.54-12.98-13.42-.35-.39-.74-.47-1.19-.52-2.92-.44-4.85-.67-6.05-.82-1.31-.15-1.59.04-2.62,2.05-.07.13-.3.24-.44.16-.96-.63-1.17-1.06-1.02-1.37.52-1.06,1.37-2.56,2.16-4.19,1.07-2.2,1.55-3.55,1.87-4.22.3-.24,1.72.19,1.69.5-.85,2.48-.83,2.81.68,3.06,6.01,1.02,18.38,2.45,25.58,3.13.24,0,.28-.2.05-.47-3.39-3.56-14.7-15.34-18.47-18.1-.91-.61-1.35-.33-1.65.18-.42.62-.83,1.45-1.22,2.02-.09.07-.21.06-.43-.1-.88-.54-1.18-.79-1.01-1.15.21-.44,1.65-3.02,2.16-4.08.69-1.41,1.3-2.91,1.47-3.26.26-.53.46-.7.78-.6l1.14.39c.1.05.15.18.11.27-1.17,2.27-.87,2.52,3.19,7.06,2.4,2.75,10.54,11.13,16.78,17.5.7.78,2.23,2.72,3.56,4.08.28.3.32.7.19.97-.26.53-.71.58-1.49.47-1.01-.17-2.39-.4-5.05-.77-3.09-.47-11.09-1.58-17.65-2.21,3.39,3.67,7.17,7.8,12.13,12.94,1.25,1.26,2.92,3.17,4.22,4.45.2.2.26.34.24.5.04.29-.06.63-.21.93-.11.22-.34.33-.77.23-.84-.14-3.47-.54-7.88-1Z"/>
          <path class="cls-1" d="M56.91,114.84c1.88-2.87,7.97-5.62,14.17-1.55,4.62,3.03,5.29,7.23,5.28,8.04.04,2.61-.46,5.04-1.62,6.8-1,1.52-4.06,4.02-7.39,4.06-2.57.07-5.34-1.04-6.93-2.08-1.86-1.22-3.6-3.3-4.35-5.21-.64-1.59-.83-2.89-.78-4.44.1-1.93.78-4.35,1.59-5.58l.03-.04ZM57.42,117.81c-.46.7-.63,1.75-.33,2.77.5,1.91,2.06,3.58,5,5.51,2.9,1.9,5.54,2.11,7.29,1.91,2.59-.3,3.94-1.46,4.61-2.49.35-.53.74-1.62.5-2.54-.36-1.53-1.42-3.46-4.18-5.27-2.76-1.82-6.14-2.98-8.99-2.39-1.33.24-2.98,1.09-3.87,2.44l-.03.04Z"/>
          <path class="cls-1" d="M95.93,99.71c-3.32,3.81-4.74,5.43-5.82,7.09q-.1.11-.22,0c-.08-.07-.57-.5-.74-.71-.08-.07-.21-.25-.19-.36.81-1.83.77-2.12.23-2.66-.97-1.11-3.08-3.14-7.2-6.74-1.71-1.5-2.38-1.88-3.28-2.01-.99-.02-2.29.41-3.33,1.59-.74.85-1.31,2.5-1.46,4.64-.02.44.09.8.43,1.16.74.71,3.16,2.89,5.08,4.56,4.53,3.95,4.76,4.02,6.38,2.57.27-.22.38-.19.5-.08.12.11.92.93.88.97-.29.33-2.09,2.47-2.7,3.17-.71.81-2,2.62-2.37,3.21-.14.08-.86-.49-1.28-.92.14-.33.41-1.13.48-1.46.14-.4.07-.66-.35-1.08-.43-.5-1.59-1.71-4.86-4.56-3.02-2.63-3.98-3.34-4.5-3.73-.72-.5-.86-.42-1.66.18-.57.48-.78.49-.97.45-.14,0-.85-.35-.86-.49.13-3.27.27-5.17.4-5.9.05-.47.11-.62.33-.88.19-.22.37-.26.66-.01l2.99,2.67c.2-1.39.41-4.59.85-6.41.15-.59.45-1.17.8-1.58,1.74-2,3.89-2.07,6.47-1.65.51-3.14.69-4.41,1.12-5.73.26-.88.63-1.79,1.37-2.64.55-.63,1.74-1.34,2.98-1.44,1.13-.06,2.6-.02,6.41,3.11,2.11,1.78,4.03,3.45,5.71,4.91,1.55,1.35,2.07,1.74,2.37,1.81.6.14,1.14-.24,2.78-1.54.1-.11.24-.11.4.03.16.15.86,1.07.76,1.18l-2.19,2.51c-1.26,1.44-2.13,2.69-2.76,3.58-.1.11-.2.15-.32.11-.15-.07-.71-.42-.87-.56-.08-.07-.16-.14-.11-.29.19-.55.29-1.24-.13-1.74-1.41-1.68-4.34-4.24-5.24-5.03-3.43-2.99-5.01-3.65-6.19-3.78-1.24-.23-2.12.3-3.19,1.51-.9,1.04-1.41,2.61-1.66,4.21-.05.47.04.62.49,1.01,2.33,2.1,7.79,6.8,9.43,7.97.68.46.78.42,2.68-1.18.1-.11.28-.08.49.1l.98.86Z"/>
          <path class="cls-1" d="M99.79,66.09c1.14-1,3.08-1.4,4.34-1.21,1.23.15,2.5.55,3.83,1.4.26-.37.78-1.19,1.04-1.12.18-.01.29.11.4.3.21.46.59,1.42.34,1.8-1.94,2.85-5.81,8.03-6.93,9.95-.15.2-.05.47.38.96,3.64,3.94,7.06,3.9,9.49,1.76,1.7-1.48,2.46-3.52,2.64-5.84.04-.33.49-.71.55-.56.82,1.01,1,1.36.99,1.8-.3,2.86-1.32,5.19-2.22,6.69-.34.59-.78,1.05-1.19,1.4-2.58,2.26-5.74,2-6.68,1.82-1.2-.18-3.83-1.03-6.16-3.68-3.14-3.59-3.65-7.96-3.01-11.26.28-1.54,1.11-3.27,2.14-4.18l.04-.03ZM105.44,69.19c-1-1.14-4.04-1.79-5.59-.43-.22.19-.48.64-.56,1.22-.36,1.75.8,4.34,2.37,5.98,1.27-1.97,2.68-3.79,3.95-5.69.19-.31.27-.59-.13-1.04l-.03-.04Z"/>
          <path class="cls-1" d="M121.02,74.64c.9-1.36,1.17-2.01.45-3.29-.73-1.47-2.48-4.15-4-6.32-1.21-1.73-2.41-3.27-3.01-4.04-.31-.44-.6-.51-2.79.29-.31-.11-.33.04-.67-.79-.09-.13-.03-.31.14-.56,1.08-2.14,2.1-4.44,2.18-4.76.06-.17.19-.33.35-.44.2-.14.49-.15.62.03.57.73,1.2,1.54,1.73,2.3.15.22.32.37.48.26.99-2.35,1.43-3.18,2.14-4.47.39-.8,1.09-1.69,1.82-2.2,1.16-.81,2.19-1.06,3.41-.93,1.67.15,3.35,1.36,4.84,3.16.73.87,1.48,1.94,2.81,3.85,2.26,3.24,3.64,5.12,4.35,6.14.28.4.35.41.47.33.36-.25,1.44-1.2,2.01-1.67.12-.09.32.04.51.3.19.27.5.97.58,1.18.08.28,0,.33-.16.45-3.58,2.5-4.66,3.52-6.19,4.59-.24.17-.44.31-.61.16l-.82-.75c.86-1.26,1.05-1.92.34-3.28-.73-1.47-1.84-3.14-4.04-6.29-1.71-2.44-2.62-3.66-4.32-4.12-1.17-.3-2.3-.04-3.47.77-.97.67-2.06,2.36-2.54,3.56-.15.57,0,.86.3,1.37,1,1.61,5.44,7.96,7.12,10.35.4.58.54.61,2.88-.5.27-.12.37-.06.46.14l.44,1.15-3.42,2.39c-1.61,1.12-2.74,2.25-3.54,2.81-.08.06-.18,0-.31-.18l-.57-.99Z"/>
          <path class="cls-1" d="M141.48,23.75c1.14-.57,2.42.12,3,1.28.82,1.65.26,3.14-.88,3.71-1.05.53-2.39.05-3.04-1.26-.85-1.7-.08-3.23.88-3.71l.04-.02ZM146.39,39.94c-.17-.22-.5-.23-2.75.41-.2.04-.29-.04-.28-.34-.13-1.03-.13-1.15.06-1.3,1.4-1.49,2.57-2.98,4.13-4.67.06-.09.11-.12.2-.16.09-.04.13.05.28.34,1.47,3.38,4.67,10.32,5.93,12.84,1.23,2.47,1.67,3.34,2,3.9.43.63.66.88,1.07.61,1.31-.78,1.66-.95,1.79-1.02.13-.07.54.09.57.26l.5,1.32c.1.31.01.36-.21.47-1.27.64-2.55,1.15-3.95,1.86-1.93.96-3.54,2.13-3.67,2.2-.22.11-.33.11-.47-.07-.26-.29-.5-.78-.64-1.07-.1-.19-.03-.29.1-.35,1.48-.98,1.76-1.31,1.34-2.79-.26-.84-1.69-4.36-3.3-7.37l-2.7-5.07Z"/>
          <path class="cls-1" d="M162.44,49.65c1.2-1.1,1.62-1.67,1.23-3.09-.36-1.6-1.42-4.62-2.38-7.09-.76-1.97-1.56-3.76-1.95-4.65-.19-.51-.46-.64-2.78-.38-.28-.18-.33-.04-.46-.92-.06-.15.04-.3.28-.51,1.56-1.82,3.1-3.81,3.25-4.1.1-.15.26-.27.45-.34.23-.09.51-.02.59.18.38.84.79,1.78,1.12,2.64.1.25.22.44.41.37,1.53-2.04,2.15-2.74,3.15-3.83.58-.69,1.47-1.38,2.29-1.7,1.33-.51,2.38-.51,3.54-.09,1.58.55,2.92,2.12,3.95,4.22.5,1.02.97,2.24,1.81,4.41,1.43,3.69,2.31,5.84,2.76,7,.18.45.24.49.38.43.41-.16,1.68-.82,2.34-1.14.14-.05.31.11.42.42.12.3.26,1.06.29,1.28,0,.29-.08.32-.27.4-4.07,1.57-5.37,2.3-7.11,2.97-.27.11-.5.2-.63.01l-.62-.92c1.13-1.02,1.48-1.62,1.12-3.1-.36-1.61-1.03-3.49-2.42-7.08-1.07-2.78-1.67-4.18-3.21-5.03-1.06-.58-2.22-.59-3.55-.08-1.1.43-2.56,1.8-3.32,2.85-.28.51-.2.84-.03,1.41.59,1.8,3.38,9.03,4.44,11.75.26.66.39.72,2.92.21.29-.06.38.03.41.25l.16,1.22-3.89,1.5c-1.83.71-3.19,1.52-4.11,1.88-.09.04-.18-.05-.25-.25l-.32-1.1Z"/>
          <path class="cls-1" d="M205.01,18.37c2.17-.39,3.81-.74,5-1.07,2.86-.73,3.06-.99,3.12-4.25.16-.19,1.26-.5,1.51-.49.18,1.56.34,4.07.64,5.72.37,1.81.78,3.27,1.21,4.79-.37.17-.74.3-1.08.36-.23.09-.36-.05-.49-.24-.3-.55-.7-1.36-.95-1.97-.55-1.39-1.21-1.76-3.17-1.58-1.08.08-2.68.37-5.15.82-2.41.43-2.89.57-3.17.68-.18.09-.32.16-.42.41-.09.34-.04,2.26.74,6.63.7,3.89.96,5.33,1.6,6.09.86.89,2.6.85,6.57.14,5.64-1.02,8.24-2.09,8.72-8.01.19-.09.67-.12,1.17-.15.16.08.17.14.22.4.35,2.47.19,6.02-.16,7.68-.19.36-.31.5-.55.54-.34.06-.68.12-2.28.36-1.46.21-4.84.76-8.85,1.48-3.87.7-7.65,1.6-11.48,2.45-.11-.04-.36-1.15-.38-1.58-.02-.11.11-.24.15-.25,2.14-.83,2.27-1.24,2.18-2.04-.05-.82-.42-4.27-1.4-9.71l-1.66-9.22c-1.28-7.09-1.99-9.38-2.09-9.69-.11-.31-.25-.56-.75-.58-.52-.13-1.47-.12-2.68-.23q-.06-.04-.09-.2l-.12-1.24c-.04-.21-.05-.27.2-.31l1.69-.31c1.49-.27,3.35-.49,6.3-.97l4.68-.84c2.94-.53,6.43-1.43,8.83-1.92.63-.11.94-.06,1.21.06q.49.24.47,1.24c.04,2.42.55,5.51.8,6.9-1.26.23-1.48.1-1.58-.21-1.37-3.72-2.05-5.57-5.82-4.89l-3.34.6c-2.85.51-4.42.91-4.92,1.16-.59.33-.59.88-.37,2.1.67,3.73,1.39,7.45,2.11,11.17.09.48.44.8.78.74l3.09-.55Z"/>
          <path class="cls-1" d="M225.63,32.96c1.49-.66,2.06-1.06,2.15-2.53.18-1.63.14-4.83.03-7.48-.08-2.11-.27-4.05-.36-5.03-.02-.54-.23-.75-2.5-1.25-.21-.26-.3-.15-.14-1.02,0-.17.14-.28.43-.4,2.06-1.22,4.16-2.61,4.4-2.84.14-.11.34-.18.53-.18.25-.01.5.14.5.36.09.92.18,1.94.22,2.86.01.27.07.49.27.48,2.1-1.44,2.91-1.91,4.21-2.61.77-.47,1.83-.84,2.71-.87,1.42-.06,2.42.28,3.38,1.05,1.32,1.03,2.08,2.95,2.38,5.27.15,1.13.2,2.43.3,4.76.16,3.95.31,6.28.36,7.52.02.49.07.54.22.53.44-.02,1.85-.24,2.59-.32.14,0,.25.21.27.53.01.32-.1,1.09-.14,1.31-.09.28-.19.28-.38.29-4.36.18-5.82.46-7.68.54-.29.01-.54.02-.59-.19l-.29-1.07c1.4-.6,1.92-1.05,2.05-2.58.18-1.63.14-3.64-.02-7.48-.12-2.98-.24-4.49-1.42-5.79-.82-.89-1.92-1.28-3.34-1.22-1.17.05-3.01.88-4.05,1.63-.43.4-.46.72-.49,1.32-.02,1.89.3,9.63.42,12.56.03.7.13.81,2.7,1.13.3.04.35.15.31.37l-.24,1.2-4.16.17c-1.96.08-3.52.42-4.5.46-.1,0-.15-.1-.16-.32l.05-1.14Z"/>
          <path class="cls-1" d="M261.32,12.08c1.27.09,2.74.85,3.59,1.4.32.3.72.27.81.28.83.06,3.71-.38,4.74-.3.39.03.89.55.93.77.04.17.09,1.47.07,1.69-.02.32-.29.63-.88.64-.54-.04-2.01-.09-4.16-.3.64,1.35,1.09,3.28.98,4.8-.28,3.78-3.02,6.95-6.9,8.34-1.87.62-3.04,1.19-4.16,1.76-.31.14-.48.51-.5.67-.07.97,1.07,1.54,2.39,1.64.59.04,3.68.16,4.11.19,2.06.15,3.89.56,5.46,2.03.69.65,1.22,2.04,1.09,3.88-.13,1.73-.63,2.62-2.09,4.3-2.79,3.16-5.1,3.92-6.37,4.37-1.16.35-3.44.56-4.85.46-5.33-.39-7.23-3.35-7.07-5.52.14-1.84.93-3.3,2.17-4.08,1.29-.88,2.33-1.57,3.87-2.54-2.03-1.18-3.15-1.97-3.03-3.59.04-.49.05-.7.38-1.11.52-.45,2.82-1.53,4.9-2.46-1.48-.55-2.66-1.23-3.8-2.5-1.27-1.45-1.89-3.72-1.74-5.83.24-3.24,1.98-5.61,4.31-7.18,1.7-1.07,3.63-1.96,5.69-1.81h.05ZM257.85,45.98c2.84.21,4.85-.41,6.26-1.61,1.05-.85,1.86-1.87,1.95-3.17.06-.75.07-1.57-.85-2.45-1.01-.94-2.41-1.37-4.12-1.5-1.71-.13-3.78-.06-5.02.12-.5.07-1.11.41-1.95,1.16-1.36,1.1-1.95,2.46-2.01,3.27-.07.97.8,3.8,5.69,4.16h.05ZM263.98,22.7c.13-1.73-.1-4.03-.82-5.54-.59-1.29-1.96-2.8-4.16-2.97-.88-.06-1.69.26-2.58,1-.93.69-1.44,2.23-1.55,3.74-.15,2.11.48,4.87,1.75,6.26,1.5,1.68,2.6,2.09,3.48,2.15,1.81.14,3.61-.98,3.88-4.6v-.06Z"/>
          <path class="cls-1" d="M277.02,18.81c0-.27-.27-.48-2.48-1.27-.18-.08-.22-.2-.03-.44.49-.91.56-1.01.81-1.02,2-.39,3.82-.93,6.08-1.39.1-.04.15-.03.25-.01.09.01.08.12.03.44-.77,3.61-2.21,11.11-2.65,13.89-.43,2.73-.59,3.69-.64,4.34-.02.76.02,1.1.51,1.12,1.52.13,1.91.19,2.05.22.15.02.38.39.31.54l-.37,1.37c-.1.31-.19.3-.44.26-1.4-.22-2.74-.54-4.29-.79-2.13-.34-4.12-.33-4.26-.35-.24-.04-.33-.11-.34-.33-.04-.39.05-.92.1-1.24.03-.21.14-.26.29-.23,1.78.06,2.19-.04,2.72-1.49.28-.83,1.17-4.53,1.61-7.91l.76-5.69ZM282.45,2.79c1.26.2,1.9,1.51,1.69,2.79-.29,1.82-1.62,2.7-2.88,2.5-1.16-.19-1.97-1.36-1.74-2.8.3-1.87,1.81-2.67,2.88-2.5h.05Z"/>
          <path class="cls-1" d="M284.37,36.05c1.62-.2,2.28-.42,2.79-1.8.64-1.51,1.52-4.59,2.17-7.16.52-2.05.91-3.96,1.1-4.91.13-.53,0-.78-2.04-1.92-.12-.31-.25-.23.16-1.02.04-.16.21-.23.52-.26,2.32-.58,4.74-1.31,5.02-1.46.17-.07.38-.07.56-.03.24.06.44.28.38.49-.18.9-.39,1.91-.61,2.81-.07.26-.07.48.12.53,2.42-.78,3.34-1,4.78-1.3.87-.23,1.99-.28,2.85-.06,1.38.35,2.24.96,2.94,1.98.97,1.36,1.15,3.42.77,5.73-.19,1.13-.51,2.39-1.08,4.64-.97,3.83-1.5,6.1-1.8,7.31-.12.47-.09.54.06.57.43.11,1.85.3,2.57.43.14.04.19.27.1.59-.08.31-.41,1.01-.51,1.21-.16.24-.26.21-.45.16-4.23-1.07-5.71-1.22-7.52-1.68-.29-.07-.52-.13-.52-.36l.03-1.11c1.51-.18,2.14-.46,2.7-1.88.64-1.51,1.18-3.44,2.12-7.17.74-2.88,1.06-4.37.3-5.95-.53-1.09-1.47-1.77-2.85-2.12-1.14-.29-3.13-.01-4.35.4-.52.26-.65.56-.84,1.13-.56,1.81-2.47,9.32-3.19,12.15-.17.68-.11.81,2.26,1.86.27.12.29.24.19.44l-.58,1.08-4.04-1.03c-1.9-.48-3.49-.61-4.44-.85-.09-.02-.12-.14-.06-.35l.37-1.08Z"/>
          <path class="cls-1" d="M324.43,26.71c1.43.53,2.7,2.04,3.14,3.24.46,1.15.71,2.46.6,4.03.45.05,1.42.12,1.48.37.1.15.04.31-.08.49-.31.41-.97,1.2-1.42,1.15-3.43-.34-9.83-1.26-12.05-1.33-.25-.04-.44.18-.66.8-1.72,5.08-.05,8.06,2.99,9.18,2.12.78,4.27.48,6.39-.47.31-.12.86.08.76.22-.5,1.2-.72,1.52-1.11,1.73-2.65,1.1-5.19,1.32-6.94,1.25-.67-.02-1.29-.19-1.8-.37-3.22-1.19-4.5-4.09-4.79-5-.42-1.14-.93-3.86.29-7.16,1.65-4.47,5.25-7.01,8.45-8.02,1.49-.49,3.41-.59,4.69-.11l.05.02ZM324.4,33.16c.52-1.42-.36-4.41-2.29-5.12-.28-.1-.79-.12-1.34.08-1.71.53-3.43,2.78-4.12,4.94,2.34.17,4.61.55,6.88.75.36.02.65-.05.85-.61l.02-.05Z"/>
          <path class="cls-1" d="M344.26,35.23c1.37.65,2.5,2.27,2.84,3.51.36,1.19.49,2.51.24,4.07.44.09,1.4.25,1.44.51.09.16.01.31-.12.48-.34.38-1.07,1.11-1.52,1.02-3.38-.65-9.68-2.14-11.89-2.41-.24-.06-.45.15-.73.73-2.17,4.91-.78,8.02,2.15,9.42,2.04.97,4.2.86,6.41.11.32-.09.85.16.73.29-.6,1.15-.86,1.45-1.26,1.62-2.74.86-5.29.84-7.03.62-.67-.08-1.27-.3-1.76-.53-3.1-1.48-4.12-4.47-4.32-5.41-.32-1.17-.58-3.93.94-7.11,2.05-4.3,5.87-6.51,9.14-7.23,1.53-.35,3.45-.28,4.69.31l.04.02ZM343.65,41.65c.65-1.37.04-4.42-1.82-5.3-.26-.12-.78-.19-1.34-.04-1.75.37-3.67,2.46-4.55,4.55,2.32.38,4.54.96,6.79,1.37.35.05.65,0,.9-.53l.02-.05Z"/>
          <path class="cls-1" d="M345.63,58.25c1.19.19,1.46.22,1.9-.34.41-.51,1.14-1.78,3.51-5.85l2.45-4.21c.65-1.12.73-1.45-.62-2.93-.26-.34-.11-1.07.13-1.3,2.29-.23,4.63-.25,6.52-.47.22,0,.53.06.62.11.17.1.19.55-.14.92-.75,1.19-1.5,2.19-2.28,3.62,1.12.02,5.04-.76,5.84-.87.57-.1,1.23-.16,1.61.06,1.1.64,1.65,2.53,1.05,3.56-.44.75-2.29,1.49-2.88,1.64-.36.04-.69.1-.94-.05-.26-.15-.33-.31-.36-.65-.04-.71-.31-1.62-.99-2.01-.93-.54-2.57-.37-3.76-.06-.46.11-.9.67-2.18,2.87l-3.4,5.85c-.68,1.17-.99,1.81-1,2.11,0,.31.08.54.57.77l2.34,1.24c.21.12.25.46.1.62l-1.1,1.31c-1.86-1.09-3.73-2.17-5.6-3.26-1.1-.64-2.22-1.16-2.51-1.33-.17-.1-.17-.29.12-.5l1.01-.86Z"/>
          <path class="cls-1" d="M370.47,55.17c.11-.25-.04-.55-1.72-2.2-.13-.15-.11-.27.16-.41.83-.62.93-.68,1.16-.59,1.98.48,3.86.76,6.1,1.29.11,0,.15.04.23.09.08.06.02.15-.16.42-2.21,2.95-6.67,9.16-8.23,11.49-1.54,2.3-2.08,3.1-2.4,3.67-.34.68-.44,1.01,0,1.23,1.32.76,1.65.98,1.77,1.06.12.08.19.52.05.62l-.91,1.09c-.22.24-.3.19-.51.05-1.18-.79-2.26-1.65-3.56-2.52-1.79-1.2-3.6-2.02-3.73-2.1-.2-.14-.25-.24-.17-.45.13-.37.43-.82.61-1.09.12-.18.23-.17.35-.09,1.59.8,2.01.89,3.09-.21.6-.64,2.96-3.63,4.78-6.51l3.07-4.85ZM382.12,42.9c1.06.71,1.09,2.17.37,3.25-1.03,1.53-2.61,1.77-3.66,1.06-.98-.65-1.22-2.05-.41-3.27,1.05-1.57,2.77-1.67,3.67-1.07l.04.03Z"/>
          <path class="cls-1" d="M369.88,73.9c1.56.48,2.26.55,3.28-.51,1.2-1.12,3.26-3.56,4.91-5.64,1.31-1.66,2.45-3.24,3.02-4.04.34-.42.32-.71-1.08-2.59.02-.33-.13-.31.56-.87.1-.13.28-.12.58-.02,2.36.42,4.85.74,5.18.73.18,0,.37.08.52.21.19.15.29.43.15.6-.53.75-1.13,1.59-1.71,2.31-.17.21-.26.41-.11.53,2.53.28,3.45.46,4.89.77.89.15,1.93.56,2.62,1.11,1.11.88,1.65,1.79,1.87,3.01.32,1.64-.35,3.6-1.64,5.54-.63.95-1.44,1.97-2.89,3.8-2.46,3.1-3.87,4.95-4.64,5.93-.3.38-.3.45-.19.55.35.27,1.56,1.03,2.17,1.45.12.09.06.32-.14.58-.2.26-.79.76-.96.9-.25.15-.32.09-.48-.03-3.42-2.71-4.71-3.46-6.17-4.62-.23-.18-.42-.33-.33-.53l.48-1c1.45.46,2.14.46,3.24-.61,1.2-1.12,2.48-2.66,4.87-5.67,1.85-2.33,2.75-3.55,2.71-5.31-.04-1.21-.62-2.22-1.73-3.1-.92-.73-2.86-1.3-4.14-1.41-.58.02-.82.24-1.23.68-1.26,1.42-6.07,7.49-7.89,9.78-.44.55-.43.7,1.3,2.62.2.22.17.34,0,.48l-.97.75-3.27-2.59c-1.54-1.22-2.93-1.98-3.7-2.59-.08-.06-.05-.18.09-.34l.78-.83Z"/>
          <path class="cls-1" d="M410.35,80.92c.92.88,1.57,2.41,1.86,3.37.06.43.38.67.45.73.6.58,3.1,2.08,3.85,2.8.28.27.33.99.22,1.19-.08.15-.87,1.19-1.02,1.34-.23.24-.63.3-1.09-.07-.39-.37-1.49-1.36-3-2.89-.37,1.44-1.26,3.22-2.31,4.31-2.63,2.73-6.76,3.41-10.64,2.01-1.83-.71-3.1-1.02-4.32-1.31-.33-.09-.69.09-.81.2-.68.7-.17,1.87.79,2.79.42.41,2.73,2.47,3.04,2.78,1.48,1.43,2.64,2.92,2.9,5.05.12.94-.36,2.36-1.64,3.69-1.2,1.25-2.16,1.6-4.35,1.98-4.17.65-6.43-.25-7.69-.71-1.11-.47-3-1.76-4.03-2.74-3.85-3.71-3.42-7.2-1.92-8.76,1.28-1.32,2.82-1.95,4.27-1.75,1.56.15,2.79.28,4.6.52-.81-2.2-1.17-3.53-.04-4.7.34-.35.49-.51,1-.62.69-.01,3.15.62,5.34,1.23-.79-1.37-1.26-2.65-1.32-4.35-.05-1.93.92-4.07,2.39-5.59,2.25-2.34,5.11-3.05,7.9-2.77,1.99.26,4.05.81,5.53,2.24l.04.04ZM386.02,104.79c2.05,1.97,3.99,2.78,5.85,2.77,1.34.02,2.63-.26,3.53-1.19.53-.55,1.05-1.17.91-2.43-.18-1.37-.98-2.59-2.21-3.78-1.24-1.19-2.87-2.46-3.94-3.12-.43-.26-1.12-.4-2.24-.35-1.74-.02-3.08.65-3.64,1.23-.68.7-1.81,3.44,1.72,6.84l.03.03ZM405.61,90.79c1.2-1.25,2.5-3.16,2.91-4.79.37-1.38.28-3.41-1.31-4.94-.63-.61-1.46-.88-2.63-.88-1.16-.06-2.53.8-3.58,1.89-1.46,1.52-2.74,4.05-2.65,5.94.08,2.25.67,3.27,1.3,3.88,1.31,1.26,3.41,1.55,5.93-1.06l.04-.04Z"/>
        </g>
      </g>
      <rect class="cls-1" x="25.11" y="342.67" width="383.74" height="5.84"/>
      <g>
        <path class="cls-1" d="M76,372.58c.14-.39.22-.6.29-.81,1.52-4.88,3.04-9.76,4.54-14.65.14-.46.32-.65.83-.64,1.77.04,3.54.01,5.32.02.19,0,.38.02.61.03v24.82h-5.31v-13.92s-.07-.01-.1-.02c-1.41,4.65-2.83,9.29-4.25,13.96h-4.08c-1.41-4.68-2.81-9.36-4.26-14.17v14.15h-5.29v-24.81h6.75c1.63,5.28,3.26,10.57,4.95,16.04Z"/>
        <path class="cls-1" d="M321.8,367.99c2.7.87,4.26,4.04,3.94,6.99-.42,3.94-2.49,6.07-6.64,6.33-3.46.22-6.95.05-10.47.05v-24.83c.22-.01.4-.03.59-.03,2.79,0,5.58,0,8.36,0,1.4,0,2.77.17,4.02.81,2.35,1.21,3.13,3.29,3.05,5.77-.06,2.12-.88,3.85-2.87,4.91ZM314.48,377.4c.9,0,1.72.04,2.53,0,1.21-.07,2.29-.47,2.77-1.67.55-1.38.57-2.8-.3-4.08-.27-.4-.76-.8-1.21-.9-1.22-.26-2.48-.35-3.79-.52v7.18ZM314.5,366.48c1.54-.08,3.2.35,4.22-1.29.66-1.06.53-2.94-.19-3.82-.68-.84-2.69-1.25-4.09-.82,0,1.82,0,3.65,0,5.48,0,.13.03.25.06.44Z"/>
        <path class="cls-1" d="M244.05,364.76v-8.25c2.02-.18,3.97-.35,6.02-.53v21.65c0,.15,0,.3,0,.45,0,1.04.13,1.16,1.25,1.13,0,.57.03,1.15-.02,1.71-.01.15-.25.34-.42.4-1.38.45-2.78.62-4.21.26-1.09-.27-1.92-.87-2.35-2-.22.25-.41.48-.61.68-2.34,2.37-6.53,1.88-8.54-.99-.95-1.36-1.42-2.9-1.61-4.53-.31-2.65-.23-5.27.84-7.77,1.35-3.18,4.56-4.68,7.56-3.49.74.29,1.38.82,2.1,1.26ZM244.06,372.43c0-.95,0-1.9,0-2.85,0-1.19-.95-2.32-2.05-2.45-1.24-.15-2.12.44-2.28,1.9-.21,1.87-.2,3.78-.2,5.67,0,.65.23,1.31.43,1.94.2.61.66,1.01,1.31,1.12,1.4.24,2.78-.92,2.79-2.35,0-.99,0-1.98,0-2.98Z"/>
        <path class="cls-1" d="M397.66,381.37h-5.96v-24.87c1.96-.17,3.91-.34,5.92-.52v9.66c.18-.16.27-.22.33-.31,1.56-2.02,4.36-2.78,6.7-1.8,1.73.72,2.52,2.16,2.84,3.9.11.61.16,1.24.16,1.87.01,3.85,0,7.69,0,11.54,0,.17-.02.33-.03.53h-5.97v-.72c0-3.33,0-6.65,0-9.98,0-.54-.04-1.08-.1-1.61-.07-.68-.3-1.28-1.06-1.46-.78-.19-1.46,0-2,.6-.65.74-.84,1.64-.84,2.59,0,3.28,0,6.57,0,9.85,0,.23,0,.47,0,.75Z"/>
        <path class="cls-1" d="M126.15,381.34v-24.8h13.96v4.56h-7.85v5.19h6.21v4.58h-6.19v5.92h7.82v4.56h-13.95Z"/>
        <path class="cls-1" d="M157.47,381.36h-13.92v-24.82h13.94v4.54h-7.85v5.19h6.2v4.6h-6.21v5.9h7.84v4.59Z"/>
        <path class="cls-1" d="M167.02,361.09v5.19h6.2v4.58h-6.19v5.93h7.82v4.57h-13.92v-24.82h13.94v4.55h-7.85Z"/>
        <path class="cls-1" d="M36.42,373.97c.66.53,1.24,1.04,1.86,1.48,1.48,1.05,3.1,1.72,4.96,1.55,1.04-.09,1.79-.62,2.12-1.63.32-.97.02-2.05-.86-2.65-.68-.47-1.47-.8-2.21-1.19-1.35-.71-2.8-1.28-4.03-2.16-2.67-1.93-3.24-5.02-2.4-8.22.72-2.74,3.04-4.57,6.04-4.93,2.85-.35,5.49.21,7.91,1.78.42.27.5.53.34,1-.41,1.22-.76,2.47-1.12,3.65-1.05-.49-2.02-1.07-3.08-1.4-.86-.27-1.82-.34-2.73-.35-.81-.01-1.44.44-1.7,1.26-.27.84-.11,1.62.57,2.18.49.4,1.1.67,1.67.97,1.45.75,3,1.36,4.35,2.26,2.62,1.75,3.46,4.35,3.09,7.4-.31,2.56-1.38,4.66-3.78,5.81-3.09,1.48-6.26,1.32-9.35-.02-.99-.43-1.86-1.15-2.77-1.77-.14-.1-.28-.38-.24-.52.42-1.49.88-2.96,1.35-4.5Z"/>
        <path class="cls-1" d="M104.28,362.66c-1.06-.49-2.01-1.07-3.05-1.39-.89-.28-1.86-.35-2.8-.36-.79-.01-1.39.44-1.66,1.23-.28.83-.14,1.63.54,2.18.51.42,1.13.7,1.72,1,1.43.74,2.96,1.34,4.29,2.23,2.63,1.74,3.53,4.35,3.11,7.39-.56,4.12-2.78,6.26-6.96,6.75-3.23.38-6.17-.41-8.72-2.48-.4-.32-.53-.62-.35-1.15.45-1.32.83-2.67,1.26-4.1.44.37.82.7,1.21,1.02,1.46,1.18,3.07,2,4.99,2.07,1.83.07,3.04-1.06,2.78-2.72-.09-.56-.45-1.21-.89-1.56-.66-.53-1.47-.89-2.26-1.22-1.46-.61-2.91-1.22-4.14-2.23-2.33-1.91-3.21-5.03-2.24-8.18.91-2.94,3.03-4.48,6-4.89,2.87-.39,5.53.19,7.97,1.79.4.26.46.52.32.95-.4,1.23-.76,2.47-1.13,3.69Z"/>
        <path class="cls-1" d="M184.92,373.92c1.32,1.23,2.61,2.3,4.26,2.75.86.23,1.79.33,2.67.3.98-.04,1.71-.63,1.99-1.6.28-.99.11-1.94-.75-2.57-.7-.51-1.53-.86-2.31-1.27-1.37-.73-2.84-1.3-4.08-2.2-2.63-1.91-3.19-5-2.35-8.18.72-2.74,3.04-4.57,6.04-4.93,2.85-.35,5.49.21,7.91,1.78.41.27.5.52.34,1-.41,1.22-.76,2.47-1.12,3.66-1.04-.49-2.02-1.07-3.08-1.4-.86-.28-1.82-.34-2.73-.35-.81-.01-1.44.44-1.7,1.26-.27.84-.12,1.62.57,2.18.49.4,1.1.67,1.67.97,1.45.75,3,1.36,4.35,2.26,2.63,1.75,3.46,4.35,3.1,7.4-.31,2.56-1.38,4.66-3.78,5.81-3.09,1.48-6.26,1.32-9.35-.02-.99-.43-1.86-1.15-2.76-1.77-.15-.1-.28-.42-.23-.58.42-1.47.87-2.92,1.35-4.48Z"/>
        <path class="cls-1" d="M224.34,363.52h6.01v.77c0,4.58,0,9.16,0,13.74,0,1.08.12,1.19,1.24,1.2,0,.55.03,1.11-.02,1.66-.01.15-.22.37-.39.42-1.5.51-3.03.68-4.57.18-1.13-.37-1.83-1.17-2.09-2.2-.75.61-1.43,1.36-2.28,1.82-3.66,1.97-7.54-.18-7.82-4.33-.12-1.76-.08-3.54-.08-5.31-.01-2.4,0-4.8,0-7.19,0-.23,0-.47,0-.74h6.03v.69c0,3.37,0,6.74,0,10.11,0,.52.02,1.04.09,1.55.08.65.3,1.24,1.03,1.42.79.2,1.56.09,2.05-.58.34-.47.55-1.06.72-1.63.12-.38.09-.81.09-1.22,0-3.18,0-6.35,0-9.53v-.83Z"/>
        <path class="cls-1" d="M270.31,381.35v-17.66c1.88-.16,3.73-.32,5.64-.49.06.91.12,1.74.17,2.5.67-.6,1.28-1.29,2.02-1.77,2.53-1.61,6.06-.85,7.3,1.58.41.81.75,1.75.77,2.64.08,4.38.04,8.77.04,13.19h-5.96c0-.22,0-.45,0-.68,0-3.33,0-6.66,0-9.98,0-.54-.04-1.08-.1-1.61-.07-.67-.28-1.28-1.04-1.48-.78-.21-1.46-.02-2,.57-.66.73-.85,1.63-.86,2.58,0,3.28,0,6.57,0,9.85,0,.23,0,.47,0,.75h-5.97Z"/>
        <path class="cls-1" d="M373.94,381.37h-6v-.7c0-3.33,0-6.66,0-9.98,0-.54-.04-1.08-.1-1.61-.07-.67-.28-1.28-1.03-1.48-.78-.21-1.46-.02-2,.57-.66.73-.86,1.63-.86,2.58,0,3.28,0,6.57,0,9.85v.75h-5.95v-17.66c1.85-.16,3.71-.32,5.61-.49.06.91.12,1.74.19,2.75.77-1.21,1.68-2,2.86-2.45,3.75-1.43,7.13.84,7.24,4.98.1,3.65.04,7.3.04,10.96,0,.62,0,1.25,0,1.94Z"/>
        <path class="cls-1" d="M348.53,379.59c-.37.32-.67.59-.98.85-1.27,1.04-2.74,1.45-4.35,1.32-2.11-.17-3.57-1.88-3.64-4.24-.07-2.57,1.16-4.4,3.28-5.7,1.4-.86,2.94-1.32,4.56-1.58.28-.05.55-.09.82-.13.41-1.73-.31-2.7-2.03-2.7-1.81,0-3.47.59-5.06,1.41-.15.08-.3.16-.51.28-.02-.21-.06-.36-.06-.52,0-.82,0-1.64,0-2.46,0-1.46,0-1.47,1.4-1.97,2.69-.96,5.43-1.42,8.25-.65,2.63.72,3.93,2.4,3.95,5.13.02,3.2,0,6.39,0,9.59,0,.93.15,1.06,1.15.99,0,.57.03,1.15-.02,1.71-.01.15-.24.35-.42.4-1.38.46-2.78.62-4.2.26-1.05-.27-1.8-.89-2.16-1.99ZM348.32,373.1c-.81.3-1.53.49-2.19.82-.89.45-1.46,1.18-1.6,2.21-.15,1.1.34,1.95,1.22,2.11.83.15,2.5-.85,2.55-1.62.07-1.11.02-2.23.02-3.52Z"/>
        <path class="cls-1" d="M267.18,373.5h-8.21c.08,1.52.23,3.01,1.67,3.75,2.09,1.09,4.06.59,5.86-.97.39.86.79,1.66,1.12,2.49.06.14-.1.43-.24.57-2.08,1.99-4.6,2.67-7.39,2.37-3.44-.37-5.53-2.39-6.37-5.65-.79-3.07-.76-6.13.76-9.02,1.55-2.96,4.68-4.42,7.95-3.79,2.56.5,4.34,2.39,4.85,5.19.3,1.65.22,3.31,0,5.06ZM258.89,370.45h3.75c-.12-1-.18-1.94-.37-2.86-.13-.64-.6-1.06-1.3-1.07-.66,0-1.14.35-1.32.96-.3.96-.5,1.94-.76,2.98Z"/>
        <path class="cls-1" d="M202.86,367.06h-1.83v-3.54h1.8v-4.33c2.01-.2,3.98-.39,6.02-.59v4.87h3.01v3.58h-3v.7c0,2.66,0,5.32,0,7.97,0,.37.03.73.08,1.1.14,1.09.75,1.51,1.81,1.23.39-.1.75-.29,1.15-.45.14.83.29,1.63.38,2.44.02.2-.13.52-.3.61-1.96,1.1-4.05,1.5-6.23.79-1.83-.6-2.87-2.25-2.89-4.54-.03-3.02-.01-6.05-.01-9.07,0-.23,0-.46,0-.77Z"/>
        <path class="cls-1" d="M299.17,363.47v3.59h-2.97c-.03.24-.05.39-.05.53,0,2.81,0,5.62,0,8.43,0,.15,0,.3.02.45.16,1.6,1.05,2.09,2.49,1.36.15-.08.3-.16.51-.27.15.89.3,1.73.41,2.58.02.16-.13.42-.28.5-2.05,1.15-4.22,1.58-6.47.72-1.98-.76-2.64-2.46-2.68-4.42-.05-3.02-.02-6.05-.02-9.07,0-.23,0-.47,0-.78h-1.81v-3.58h1.8v-4.31c2-.19,3.95-.38,5.98-.58v4.86h3.07Z"/>
        <path class="cls-1" d="M26.3,381.36v-24.82h6.02v24.82h-6.02Z"/>
        <path class="cls-1" d="M54.2,356.51h5.99v24.84h-5.99v-24.84Z"/>
        <path class="cls-1" d="M122.05,381.39h-5.99v-24.86h5.99v24.86Z"/>
        <path class="cls-1" d="M388.99,375.98c0,1.4.02,2.67-.02,3.94,0,.22-.16.53-.34.63-.68.36-1.37.77-2.1.95-4.75,1.16-8.73-1.35-9.73-6.16-.65-3.11-.47-6.16,1.29-8.93,2.09-3.29,6.81-4.36,10.15-2.35.52.31.81.67.77,1.34-.07,1.11-.02,2.24-.02,3.5-.28-.21-.46-.35-.64-.48-1.03-.79-2.21-.97-3.44-.73-1.25.25-1.87,1.17-2.16,2.33-.36,1.47-.39,2.96-.08,4.43.56,2.69,2.98,3.69,5.34,2.24.31-.19.58-.42.98-.71Z"/>
        <path class="cls-1" d="M328.3,363.68c1.88-.16,3.72-.32,5.61-.48.06.89.12,1.71.16,2.43.64-.6,1.23-1.34,1.99-1.8.75-.44,1.67-.59,2.63-.91v5.7c-.23-.06-.45-.12-.68-.17-2.25-.49-3.76.7-3.77,2.99-.02,3.05,0,6.09,0,9.14,0,.24,0,.47,0,.75h-5.95v-17.66Z"/>
      </g>
      <g>
        <path class="cls-1" d="M119.58,401.69c-.48,1.97-.97,3.94-1.45,5.91-1.11,4.57-2.22,9.14-3.34,13.71-.23.94-.56,1.19-1.54,1.19-.15,0-.31,0-.46,0-1.01,0-1.29-.21-1.52-1.19-.77-3.22-1.54-6.44-2.3-9.67-1.17-4.92-2.34-9.84-3.51-14.76-.14-.57-.33-1.15.23-1.59.58-.45,1.29-.39,1.89-.13.33.14.63.62.72,1,1.48,6.02,2.92,12.06,4.38,18.09.15.64.31,1.28.61,1.94.1-.4.21-.8.3-1.2,1.39-6.16,2.78-12.32,4.16-18.48.31-1.38,1.82-2.06,3.05-1.3.31.19.55.64.64,1.01,1.48,6.41,2.92,12.83,4.38,19.25.06.26.12.52.21.91.1-.26.17-.4.2-.55,1.55-6.46,3.11-12.92,4.66-19.38.29-1.22.54-1.43,1.68-1.42,1.11,0,1.56.58,1.31,1.68-.44,1.87-.89,3.74-1.34,5.61-1.48,6.23-2.97,12.46-4.45,18.69-.34,1.41-1.4,2.01-2.74,1.4-.37-.17-.73-.67-.83-1.08-1.58-6.32-3.11-12.65-4.66-18.98-.05-.21-.11-.43-.16-.64-.03,0-.07,0-.1,0Z"/>
        <path class="cls-1" d="M327.99,410.16c-1,0-2.03,0-3.07,0-.93,0-1.86.01-2.79,0-.84-.01-1.24-.47-1.25-1.36,0-.95.38-1.42,1.25-1.42,2.63-.01,5.26-.01,7.9,0,.82,0,1.23.42,1.23,1.23,0,3.98,0,7.96,0,11.94,0,.78-.36,1.32-1.06,1.5-3.58.96-7.21,1.4-10.88.55-3.85-.89-6.51-3.26-7.83-6.95-1.69-4.74-1.7-9.56.12-14.27,1.57-4.05,4.73-6.16,8.95-6.73,2.41-.32,4.81-.27,7.12.62.47.18.92.42,1.36.68.8.47,1.06,1.14.71,1.74-.57.98-1.28,1.21-2.2.83-.95-.4-1.92-.85-2.92-1.01-2.24-.37-4.46-.21-6.54.81-2.07,1.02-3.17,2.85-3.83,4.95-1.38,4.38-1.16,8.68.91,12.81,1.27,2.54,3.47,3.73,6.22,4.02,2.11.22,4.19-.04,6.27-.41.16-.03.4-.29.4-.45.02-2.96,0-5.93,0-8.89,0-.04-.03-.08-.08-.19Z"/>
        <path class="cls-1" d="M394.66,405.74c.83-1.2,1.86-2.14,3.25-2.63,3.37-1.17,6.77.16,8.31,3.41,1.88,3.98,1.91,8.11.23,12.15-1.58,3.79-5.33,5.26-9.31,3.86-.74-.26-1.44-.63-2.24-.99v1.29c0,2.1,0,4.2,0,6.3,0,1.42-1.22,2.12-2.48,1.44-.51-.28-.64-.75-.64-1.29,0-1.5,0-3.01,0-4.51,0-6.61,0-13.22,0-19.83,0-.2-.06-.43.02-.59.18-.35.36-.77.67-.95.41-.24.9-.05,1.15.37.38.62.68,1.28,1.04,1.96ZM404.51,413.02c-.06-2.14-.4-3.89-1.06-5.17-.55-1.07-1.36-1.86-2.54-2.17-2.86-.76-6.01,1.69-6.02,4.67,0,2.19.04,4.38-.02,6.57-.03.89.32,1.48.96,1.98.31.24.65.47,1,.65,3.29,1.69,6.5.22,7.27-3.37.22-1.03.28-2.1.41-3.15Z"/>
        <path class="cls-1" d="M37.36,419.7c.31,0,.55,0,.79,0,3.43,0,6.85,0,10.28,0,.95,0,1.34.42,1.34,1.39,0,.99-.38,1.4-1.34,1.4-4.27,0-8.53,0-12.8,0-.97,0-1.36-.39-1.36-1.38,0-8.25,0-16.49,0-24.74,0-.94.4-1.35,1.32-1.35,4.29,0,8.58,0,12.87,0,.93,0,1.31.41,1.31,1.35,0,.99-.38,1.41-1.33,1.41-3.43,0-6.85,0-10.28,0-.26,0-.52,0-.81,0v9.56h.72c2.92,0,5.84,0,8.76,0,1.1,0,1.49.36,1.49,1.37,0,1.04-.4,1.42-1.53,1.42-2.9,0-5.79,0-8.69,0-.24,0-.47,0-.75,0v9.55Z"/>
        <path class="cls-1" d="M57.66,397.79v9.56c.27,0,.5,0,.74,0,2.94,0,5.88,0,8.82,0,1.02,0,1.41.39,1.41,1.39,0,.99-.41,1.4-1.41,1.4-2.92,0-5.84,0-8.76,0-.24,0-.48,0-.78,0v9.55h.72c3.43,0,6.85,0,10.28,0,.52,0,1.07.07,1.21.59.14.52.13,1.14-.02,1.65-.08.26-.62.53-.96.53-4.4.04-8.8.03-13.2.02-.66,0-1.07-.41-1.14-1.06-.02-.17-.01-.35-.01-.53,0-8.09,0-16.18,0-24.28,0-1.29.31-1.6,1.61-1.6,4.13,0,8.27.02,12.4-.01,1.53-.01,1.65.98,1.44,1.97-.14.66-.72.81-1.35.81-3.4,0-6.81,0-10.21,0-.24,0-.48,0-.79,0Z"/>
        <path class="cls-1" d="M77.96,397.79v9.56h.72c2.87,0,5.75,0,8.62,0,1.24,0,1.62.33,1.62,1.38,0,1.05-.41,1.42-1.6,1.42-2.87,0-5.75,0-8.62,0-.24,0-.47,0-.74,0v9.55h.73c3.4,0,6.81.04,10.21-.02,1.43-.02,1.66,1.03,1.39,2.07-.13.5-.54.74-1.06.74-4.4,0-8.8,0-13.2,0-.69,0-1.1-.42-1.16-1.11-.02-.18,0-.35,0-.53,0-8.07,0-16.14,0-24.21,0-1.3.31-1.61,1.59-1.61,4.13,0,8.27,0,12.4,0,1.25,0,1.83.75,1.47,1.95-.2.65-.72.83-1.35.82-3.4,0-6.81,0-10.21,0-.26,0-.52,0-.81,0Z"/>
        <path class="cls-1" d="M148.56,397.79v9.56c.27,0,.5,0,.74,0,2.94,0,5.88,0,8.82,0,1.03,0,1.41.38,1.41,1.39,0,.99-.41,1.4-1.41,1.4-3.16,0-6.32,0-9.54,0v9.55h.72c3.43,0,6.85,0,10.28,0,1.22,0,1.9,1.2,1.22,2.23-.19.28-.64.54-.98.54-4.4.04-8.8.03-13.2.02-.69,0-1.09-.42-1.15-1.12-.01-.18,0-.35,0-.53,0-8.07,0-16.14,0-24.21,0-1.29.31-1.6,1.61-1.6,4.13,0,8.27.02,12.4-.01,1.53-.01,1.65.98,1.44,1.97-.14.66-.72.82-1.35.81-3.4,0-6.81,0-10.21,0-.24,0-.48,0-.8,0Z"/>
        <path class="cls-1" d="M185.68,415.18c-1.44,0-2.88.03-4.31-.01-.53-.02-.72.18-.86.65-.53,1.82-1.1,3.63-1.64,5.45-.38,1.29-.86,1.33-2.12,1.19-.69-.08-1-.8-.74-1.63.57-1.86,1.16-3.71,1.74-5.56,1.98-6.3,3.95-12.59,5.93-18.89.38-1.2.59-1.35,1.84-1.35.2,0,.4,0,.6,0,.86.01,1.19.24,1.45,1.06,1.36,4.31,2.72,8.63,4.07,12.95,1.22,3.9,2.45,7.79,3.67,11.69.29.94.09,1.56-.65,1.7-1.1.21-1.81.12-2.11-.88-.58-1.94-1.18-3.89-1.74-5.84-.12-.42-.31-.55-.73-.54-1.46.03-2.92,0-4.38,0ZM189.71,412.38c-1.34-4.43-2.67-8.81-4-13.19-.05,0-.09.02-.14.03-1.33,4.37-2.65,8.75-3.99,13.16h8.13Z"/>
        <path class="cls-1" d="M289.9,418.1c1.08-4.02,2.1-7.83,3.12-11.65.21-.79.42-1.58.64-2.36.25-.9,1.03-.96,2.05-.78.68.12.96.72.75,1.51-1.81,6.78-3.61,13.56-5.45,20.34-.41,1.52-1.08,2.94-2.14,4.14-1.79,2.04-4.84,2.47-6.89.96-.43-.32-.81-.69-.71-1.25.11-.62.39-1.22,1.06-1.41.35-.1.8-.07,1.13.07,1.51.63,2.64.43,3.5-.94.64-1.01,1.06-2.17,1.51-3.29.1-.26-.01-.65-.12-.95-2-5.73-4.01-11.46-6.01-17.19-.09-.27-.27-.57-.23-.82.07-.38.21-.86.49-1.06.84-.6,2.13-.12,2.48.86,1.24,3.54,2.47,7.09,3.71,10.63.35,1,.7,1.99,1.12,3.18Z"/>
        <path class="cls-1" d="M366.95,412.39c-.04,2.75-.41,4.98-1.63,6.99-3.09,5.04-10.83,4.92-13.58-.31-2.15-4.09-2.08-8.36,0-12.48,1.45-2.85,4.71-4.29,8.04-3.8,3.84.57,6.23,3.04,6.88,7.15.15.96.22,1.93.28,2.45ZM353.18,412.77c.06.01.13.03.19.04-.02,1.47.15,2.91.71,4.28.84,2.06,2.37,3.14,4.45,3.15,2.14.01,3.75-1.02,4.56-3.1,1.15-2.97,1.07-5.96-.09-8.92-.36-.93-.97-1.68-1.88-2.15-2.69-1.41-5.99-.26-7.03,2.58-.48,1.3-.62,2.73-.91,4.1Z"/>
        <path class="cls-1" d="M241.48,405.69c.75-.63,1.52-1.4,2.4-2.01,2.79-1.91,8.08-1.15,9.31,3.52.37,1.4.59,2.87.64,4.31.1,3.25.05,6.5.05,9.75,0,.83-.4,1.21-1.22,1.23-.2,0-.4,0-.6,0-.86-.02-1.26-.4-1.26-1.26,0-2.7.02-5.4-.01-8.09-.02-1.26-.08-2.52-.24-3.77-.2-1.51-.61-2.95-2.29-3.49-1.75-.57-3.31-.13-4.54,1.18-.66.7-1.17,1.54-1.65,2.37-.22.37-.29.88-.29,1.33-.02,3.34-.01,6.68-.01,10.02,0,1.47-.86,2.12-2.25,1.65-.31-.1-.57-.46-.75-.76-.13-.23-.11-.56-.11-.84,0-5.35,0-10.7,0-16.05,0-.18-.06-.39.02-.52.18-.3.39-.71.67-.8.28-.09.81.04.98.27.48.64.83,1.37,1.17,1.96Z"/>
        <path class="cls-1" d="M384.1,420.02c-.82,1.07-1.83,1.95-3.09,2.49-3.63,1.57-7.61-.25-8.58-4.1-.46-1.82-.59-3.75-.67-5.64-.11-2.67-.02-5.35-.03-8.02,0-.58.05-1.17.68-1.37.67-.22,1.44-.34,2.02.16.28.24.4.77.41,1.18.05,3.29.02,6.59.08,9.88.02.94.16,1.9.39,2.81.59,2.41,2.76,3.46,5.04,2.44,1.83-.82,2.84-2.39,3.53-4.2.07-.19.03-.44.03-.66,0-3.38,0-6.77,0-10.15,0-1.41,1.11-2.1,2.4-1.48.58.28.69.8.69,1.39,0,4.82,0,9.64,0,14.46,0,.69-.01,1.37,0,2.06.01.49-.14.88-.61,1.07-.49.2-.9,0-1.16-.39-.4-.6-.72-1.24-1.12-1.93Z"/>
        <path class="cls-1" d="M200.9,406.15c-.91,0-1.73,0-2.54,0-.98-.01-1.38-.43-1.39-1.44,0-1.02.39-1.45,1.37-1.45.82,0,1.63,0,2.56,0,0-.75-.06-1.47.01-2.18.12-1.11.18-2.27.55-3.3.88-2.46,3.27-3.67,5.81-3.05.85.21,1.67.58,2.45.97.69.35.84,1.05.49,1.7-.43.81-.94,1-1.74.69-.29-.11-.58-.23-.87-.31-1.97-.53-3.46.5-3.6,2.54-.06.94-.01,1.9-.01,2.94,1.2,0,2.39,0,3.57,0,1.05,0,1.44.39,1.44,1.43,0,1.08-.38,1.46-1.49,1.46-1.15,0-2.3,0-3.54,0v.81c0,4.62,0,9.24,0,13.86,0,1.43-.86,2.06-2.22,1.62-.54-.17-.83-.57-.85-1.14-.02-.49-.01-.97-.01-1.46,0-4.27,0-8.53,0-12.8,0-.26,0-.52,0-.88Z"/>
        <path class="cls-1" d="M216.84,403.25c0-1.1-.02-2.11,0-3.12.03-1.12.32-2.18.89-3.15,1.1-1.85,3.11-2.77,5.28-2.3.89.2,1.75.58,2.58.98.71.35.89,1.03.57,1.68-.42.84-.95,1.06-1.77.74-.29-.11-.58-.23-.87-.31-1.95-.52-3.42.48-3.58,2.48-.08.96-.01,1.94-.01,3,1.16,0,2.3,0,3.44,0,1.32,0,1.91.83,1.49,2.1-.19.59-.64.8-1.23.8-1.21,0-2.43,0-3.73,0v.82c0,4.62-.02,9.24.01,13.86.01,1.76-1.08,1.83-2.24,1.59-.64-.13-.86-.69-.86-1.33,0-1.7,0-3.4,0-5.11,0-3.01,0-6.01,0-9.02v-.81c-.87,0-1.68,0-2.49,0-1.04,0-1.44-.42-1.44-1.45,0-1.04.4-1.44,1.44-1.44.79,0,1.59,0,2.5,0Z"/>
        <path class="cls-1" d="M270.07,406.02c-.94,0-1.8,0-2.65,0-.95-.01-1.31-.42-1.3-1.43,0-.95.38-1.33,1.33-1.34.86,0,1.71,0,2.63,0,0-1.49,0-2.92,0-4.36,0-1.38,1.15-2.08,2.41-1.47.5.24.65.68.64,1.21,0,1.5,0,3,0,4.61.26,0,.49,0,.72,0,1.3,0,2.61-.01,3.91,0,.84,0,1.21.42,1.22,1.3.01,1-.33,1.45-1.2,1.46-1.52.02-3.04,0-4.6,0-.02.22-.05.38-.05.55,0,3.38-.02,6.76.01,10.15,0,.56.12,1.15.34,1.67.5,1.17,1.72,1.71,3.03,1.42.36-.08.72-.22,1.07-.35.86-.33,1.36-.15,1.8.67.38.71.25,1.22-.56,1.7-1.86,1.11-3.83,1.56-5.86.54-2.06-1.04-2.81-2.95-2.86-5.11-.08-3.45-.03-6.9-.03-10.34,0-.26,0-.53,0-.89Z"/>
        <path class="cls-1" d="M339.08,405.75c.85-1.24,1.95-2.24,3.45-2.7,1.6-.5,3.18-.43,4.73.22.86.36,1.07,1,.64,1.81-.55,1.04-1.09,1.3-2.17.78-1.81-.87-4.02-.13-5.27,1.59-.77,1.06-1.21,2.19-1.18,3.56.07,3.25.02,6.5.02,9.75,0,1.49-.82,2.1-2.25,1.68-.62-.18-.85-.67-.86-1.27-.02-.75,0-1.5,0-2.25,0-4.69,0-9.37,0-14.06,0-.2-.06-.43.02-.59.17-.31.37-.72.65-.82.28-.1.81.03.99.25.48.62.83,1.33,1.25,2.04Z"/>
        <path class="cls-1" d="M29.36,408.83c0,4.05,0,8.09,0,12.14,0,.54.03,1.2-.57,1.35-.61.15-1.32.15-1.91-.03-.28-.09-.54-.74-.55-1.14-.06-1.9-.03-3.8-.03-5.7,0-6.26,0-12.52,0-18.77,0-1.41,1.28-2.14,2.52-1.43.47.27.54.7.54,1.19,0,3.6,0,7.21,0,10.81,0,.53,0,1.06,0,1.59Z"/>
        <path class="cls-1" d="M140.57,408.76c0,4.07,0,8.14,0,12.21,0,.54.03,1.2-.57,1.35-.61.15-1.32.15-1.91-.03-.28-.09-.54-.74-.55-1.14-.06-1.77-.03-3.54-.03-5.31,0-6.39,0-12.78,0-19.17,0-1.42,1.27-2.14,2.52-1.44.47.27.55.7.54,1.19,0,3.49,0,6.99,0,10.48,0,.62,0,1.24,0,1.86Z"/>
        <path class="cls-1" d="M230.44,412.87c0-2.67.04-5.35-.02-8.02-.04-1.72,1.28-1.83,2.42-1.46.6.2.72.77.72,1.37,0,4.53,0,9.06,0,13.59,0,.88,0,1.77,0,2.65-.01,1.03-.47,1.48-1.52,1.48-1.14,0-1.59-.38-1.59-1.45-.01-2.72,0-5.44,0-8.16Z"/>
        <path class="cls-1" d="M259.1,412.87c0-2.67.04-5.35-.02-8.02-.04-1.72,1.29-1.83,2.42-1.46.64.21.72.82.72,1.43,0,4.62,0,9.24,0,13.86,0,.8.01,1.59,0,2.39-.02.97-.5,1.41-1.52,1.42-1.12,0-1.58-.37-1.59-1.39-.02-2.74,0-5.48,0-8.22Z"/>
        <path class="cls-1" d="M233.81,397.65c0,1.35-.66,2.07-1.92,2.06-1.22,0-1.87-.72-1.88-2.04,0-1.28.65-1.98,1.86-1.98,1.27,0,1.94.67,1.94,1.96Z"/>
        <path class="cls-1" d="M258.67,397.64c0-1.29.68-1.97,1.95-1.95,1.2.01,1.85.72,1.85,1.99,0,1.35-.68,2.05-1.95,2.03-1.21-.02-1.85-.74-1.84-2.07Z"/>
      </g>
    </g>
  </g>
</svg>