<svg width="79" height="82" viewBox="0 0 79 82" fill="none" xmlns="http://www.w3.org/2000/svg">
<path d="M60.8317 44.3303V55.8033C60.8317 58.7165 60.8317 58.9023 62.9395 59.1525V60.0509H55.9946V59.1221C58.1042 58.8738 58.1042 58.6578 58.1042 55.7748V49.139C58.0114 47.4956 58.4037 47.6511 56.3661 48.2993" fill="white"/>
<path d="M67.5887 51.5234C67.5887 54.5618 68.4872 59.0577 72.3633 59.0577C74.4407 59.0577 76.2375 57.911 77.4468 56.2373L77.9737 56.732C76.6716 58.8719 74.5013 60.3902 71.9596 60.3902C67.6191 60.3902 64.4575 56.8571 64.4575 52.6095C64.4575 48.6405 67.2172 44.5482 71.5578 44.5482C75.4339 44.5482 78.0989 47.8652 78.0989 51.5234H67.5887ZM74.9676 50.3444C75.1534 48.2064 74.2246 45.5699 71.5255 45.5699C68.8264 45.5699 67.8048 48.2367 67.7423 50.3444H74.9657H74.9676Z" fill="white"/>
<path d="M22.419 29.7033C18.7418 32.6109 16.0049 37.0594 15.5784 40.566C15.2372 43.4736 16.1754 45.8675 19.2555 46.0381C22.5042 46.2086 25.9255 43.3864 28.3194 40.8219C30.2016 38.7691 31.9112 35.691 32.0818 33.8941C32.1671 33.0393 32.0818 32.355 31.6553 31.6708C31.4847 31.3296 31.3123 31.2424 31.3976 31.0718C31.4848 30.9012 31.8259 31.0718 32.0818 31.3296C32.3396 31.5855 33.1944 32.6109 33.0219 34.5783C32.9366 36.8889 31.3957 39.624 29.5154 41.762C27.2921 44.1559 22.9307 47.0635 19.083 46.8076C15.2334 46.5517 13.3531 44.0706 13.7796 40.3935C14.2061 36.9723 17.1156 32.5256 21.6475 29.1044C25.7511 26.0262 30.8839 23.8882 35.3306 23.8882C40.2075 23.8882 45.6814 25.7703 44.8247 32.8687C44.3111 38.0868 35.16 49.5465 29.5154 55.1891V55.2744C32.2524 53.3923 35.0747 51.2543 39.2636 48.1761C42.8573 45.6116 47.1352 42.4481 49.8703 40.3101C50.8976 37.4025 52.0936 34.3225 53.6346 31.8433C55.6874 28.5926 57.9088 26.9682 59.7057 26.9682C61.2447 26.9682 62.3573 28.3367 61.6731 30.3895C60.5624 33.896 56.201 36.8889 53.8905 39.1122C52.6073 44.4137 50.9829 51.5992 48.246 55.2763V55.3616C51.1516 52.5393 58.5078 46.3811 63.6387 41.7639C71.8496 34.3225 74.8425 28.7651 75.3562 25.7703C75.5267 24.5724 75.4414 23.4617 74.8425 22.8628C74.2454 22.3491 73.6446 22.5216 73.7299 22.2638C73.8152 22.0932 74.3288 22.0079 74.5847 22.0079C77.0658 22.0079 78.2618 23.9754 78.0912 26.1987C77.6648 29.7052 73.9858 35.0939 64.4935 42.8765C57.7363 48.4358 51.0663 53.9931 45.509 59.2965C44.9953 59.8102 44.1405 60.5797 43.115 60.5797C42.2583 60.5797 42.2583 59.8102 42.772 59.1259C45.6796 55.191 47.4745 46.7261 49.442 41.8511V41.7658C47.8176 43.1343 42.6014 47.0673 38.4068 50.1473C34.815 52.7118 27.2049 58.273 24.0395 60.3238C23.5259 60.6669 22.8416 61.1787 22.2427 61.1787C21.2154 61.1787 20.9595 60.4944 21.729 59.5543C24.9797 56.1331 28.8274 51.857 32.5898 46.5555C36.3522 41.254 39.69 35.5223 40.3743 31.1609C41.0585 26.7142 38.6627 24.6615 35.1562 24.6615C30.8801 24.6615 26.0051 26.9701 22.4133 29.7071L22.419 29.7033ZM60.6477 30.4729C61.2466 28.8485 60.6477 27.8212 59.537 27.8212C58.2538 27.8212 56.9706 29.7014 56.4588 30.8993C55.5187 32.8668 54.6638 35.6891 54.1502 37.5712C55.7746 36.0321 59.537 33.2951 60.6496 30.4729H60.6477Z" fill="white"/>
<path d="M60.6743 42.2491C60.6743 43.0983 59.9844 43.7882 59.1352 43.7882C58.2861 43.7882 57.5942 43.0983 57.5942 42.2491C57.5942 41.4 58.2842 40.7081 59.1352 40.7081C59.9863 40.7081 60.6743 41.3962 60.6743 42.2491Z" fill="white"/>
<path d="M0.386696 52.2304C0.530747 53.0587 0.608452 53.1364 0.805576 53.1497C0.993223 53.1724 1.38368 53.1724 2.58158 53.0833L4.62864 52.9298C5.24275 52.8843 5.75262 52.8274 6.09948 52.7744C6.35347 52.7365 6.38949 52.6587 6.41034 52.5185C6.4236 52.4237 6.43119 52.1167 6.44635 52.0314C6.46151 51.965 6.4691 51.9271 6.49943 51.9252C6.57145 51.9195 6.75909 51.9631 6.79132 51.9783C6.82733 52.7308 6.84438 53.1118 6.8804 53.4529C6.91072 53.8604 6.97706 54.3305 6.98844 54.3589C6.99223 54.4139 6.95621 54.4651 6.91451 54.4765C6.81405 54.5125 6.72308 54.5371 6.66243 54.5333C6.5923 53.8756 6.52596 53.6766 6.24733 53.6595C6.08243 53.6633 5.7204 53.6425 4.57557 53.7278L2.12858 53.9097C0.788513 54.0102 0.686164 54.0272 0.638778 54.3476C0.636883 54.4499 0.625518 54.5902 0.634995 54.8518C0.638786 54.8878 0.60845 54.9086 0.578123 54.9124C0.547797 54.9143 0.506106 54.9086 0.420812 54.8783C0.34689 54.8461 0.326039 54.8385 0.312771 54.8119C0.297608 54.738 0.291917 54.6831 0.284335 54.5712C0.276754 54.4613 0.263488 54.1448 0.227475 53.6614C0.181985 53.18 0.123224 52.5507 0.117538 52.4578C0.10806 52.3365 0.117544 52.327 0.147871 52.3157L0.388581 52.2323L0.386696 52.2304Z" fill="white"/>
<path d="M3.16346 48.9229C3.16914 48.504 3.16346 48.1894 3.1464 47.9562C3.11418 47.3971 3.07438 47.3516 2.46974 47.2208C2.43941 47.1829 2.42235 46.9687 2.43372 46.9232C2.73131 46.946 3.20326 47.0085 3.5198 47.0142C3.86855 47.0104 4.15666 46.9858 4.45424 46.963C4.47319 47.0369 4.48267 47.1128 4.48267 47.1772C4.49215 47.2246 4.46182 47.2417 4.42012 47.2606C4.3064 47.2966 4.1415 47.3402 4.01829 47.3668C3.73967 47.4179 3.6468 47.5279 3.60889 47.8994C3.58614 48.1041 3.58046 48.4111 3.57287 48.885C3.56529 49.3494 3.57287 49.4422 3.58425 49.4991C3.59372 49.537 3.60319 49.5654 3.64489 49.5939C3.70554 49.6223 4.06378 49.683 4.90535 49.6962C5.65404 49.7076 5.93266 49.7133 6.09756 49.6223C6.29469 49.4953 6.35155 49.1712 6.36293 48.4073C6.37999 47.3194 6.27384 46.7981 5.19156 46.493C5.18208 46.4551 5.19156 46.3622 5.20483 46.2693C5.22568 46.2428 5.23705 46.2428 5.28823 46.2428C5.76019 46.2693 6.41411 46.4266 6.70979 46.5536C6.77045 46.601 6.79129 46.6294 6.7894 46.6749C6.7894 46.7394 6.7875 46.8057 6.77233 47.1109C6.75717 47.3895 6.73822 48.0396 6.72684 48.8111C6.71547 49.5541 6.7458 50.2895 6.76475 51.0344C6.75338 51.0533 6.5392 51.059 6.4558 51.0477C6.43495 51.0477 6.416 51.0192 6.416 51.0098C6.34019 50.5814 6.27005 50.5435 6.11463 50.5321C5.9611 50.5113 5.30529 50.4544 4.25902 50.4373L2.48301 50.4108C1.1183 50.3899 0.665291 50.4392 0.602742 50.4468C0.540193 50.4544 0.489024 50.4733 0.468175 50.5643C0.426476 50.6572 0.392348 50.8335 0.327904 51.0552C0.321586 51.0616 0.307692 51.0647 0.28621 51.0647L0.05118 51.042C0.0094808 51.042 0 51.042 0 50.9946L0.00569181 50.6705C0.00948265 50.3824 0.0360204 50.0298 0.0549746 49.4631L0.0682324 48.5609C0.0777095 47.9941 0.0360097 47.3137 0.0322189 46.8493C0.0341143 46.728 0.0549713 46.673 0.0871935 46.6275C0.128893 46.5719 0.211025 46.5574 0.333596 46.5839C0.784706 46.6654 1.37987 46.6825 1.64712 46.6882C1.64333 46.9289 1.61111 46.9668 1.55045 46.9744C0.809343 47.0938 0.439739 47.1526 0.428367 47.8766L0.418892 48.5173C0.409415 49.065 0.426474 49.3721 0.454905 49.4745C0.494709 49.5958 0.59706 49.6166 0.832092 49.6204C1.55046 49.6318 2.26882 49.6337 2.98718 49.6337C3.08006 49.6337 3.15209 49.5806 3.15398 49.5143L3.16346 48.9191V48.9229Z" fill="white"/>
<path d="M3.56134 43.0717C3.61441 42.6566 3.64473 42.342 3.65421 42.1089C3.68454 41.5516 3.65041 41.5004 3.06473 41.3014C3.03819 41.2616 3.04578 41.0455 3.06284 41.0019C3.35663 41.0588 3.81721 41.1744 4.13185 41.2142C4.47871 41.2502 4.76871 41.2597 5.06629 41.2692C5.07766 41.345 5.07767 41.4208 5.07008 41.4853C5.07388 41.5327 5.04165 41.5478 4.99806 41.5611C4.88054 41.5819 4.71185 41.6085 4.58675 41.6198C4.30434 41.6388 4.19819 41.7374 4.12048 42.1032C4.07499 42.3022 4.03519 42.6074 3.97454 43.0774C3.91388 43.538 3.91388 43.6309 3.91578 43.6877C3.92147 43.7257 3.92714 43.756 3.96505 43.7882C4.02381 43.8242 4.37258 43.9247 5.20656 44.0327C5.94957 44.1294 6.2244 44.1635 6.39878 44.0934C6.60917 43.9891 6.70204 43.6726 6.79871 42.9163C6.93707 41.8378 6.89348 41.3071 5.851 40.8825C5.84531 40.8446 5.86806 40.7536 5.88891 40.6627C5.91355 40.638 5.92303 40.6399 5.9742 40.6456C6.44048 40.7252 7.07355 40.9564 7.35218 41.1138C7.40715 41.1668 7.4242 41.1991 7.41851 41.2445C7.41093 41.309 7.40146 41.3734 7.35218 41.6767C7.30669 41.9515 7.21381 42.596 7.11335 43.3598C7.01858 44.0972 6.96551 44.8307 6.90107 45.5718C6.8878 45.5888 6.67362 45.5718 6.59401 45.5509C6.57316 45.549 6.5561 45.5187 6.558 45.5092C6.53146 45.0752 6.46511 45.0297 6.31348 44.9994C6.16374 44.9615 5.5174 44.8307 4.47871 44.698L2.71787 44.4706C1.36454 44.2962 0.909643 44.2924 0.847094 44.2943C0.784545 44.2943 0.731468 44.3075 0.699246 44.3985C0.646174 44.4857 0.593108 44.6563 0.504024 44.8705C0.496442 44.8755 0.482536 44.8768 0.462318 44.8743L0.231083 44.8269C0.189383 44.8212 0.179897 44.8193 0.185583 44.7738L0.227288 44.4516C0.263301 44.1654 0.329637 43.8185 0.413036 43.2575L0.528665 42.3628C0.600691 41.7999 0.636696 41.1213 0.685977 40.6589C0.70114 40.5394 0.72958 40.4864 0.765593 40.4447C0.81361 40.3941 0.896998 40.3891 1.01578 40.4295C1.45362 40.5622 2.0431 40.6475 2.30846 40.6816C2.27813 40.9204 2.24212 40.9545 2.17957 40.9545C1.42898 40.9887 1.05559 41.0057 0.962712 41.726L0.88121 42.3609C0.81108 42.9049 0.792125 43.212 0.809184 43.3162C0.833824 43.4413 0.934284 43.4736 1.16742 43.502C1.8801 43.5949 2.59467 43.6764 3.30735 43.7598C3.39833 43.7711 3.47793 43.7257 3.48552 43.6612L3.56134 43.0698V43.0717Z" fill="white"/>
<path d="M4.62503 37.3021C4.72549 36.8964 4.79183 36.5875 4.82784 36.3563C4.92261 35.8047 4.89417 35.7497 4.33503 35.4863C4.31418 35.4427 4.34641 35.2304 4.36726 35.1868C4.65157 35.2759 5.09699 35.4446 5.40594 35.5223C5.74712 35.5981 6.03333 35.6398 6.32901 35.6853C6.33091 35.763 6.32333 35.8369 6.30627 35.8995C6.30627 35.9468 6.27026 35.9582 6.22666 35.9658C6.10725 35.9753 5.93666 35.981 5.81156 35.9772C5.52915 35.9639 5.41162 36.0511 5.29221 36.4036C5.22208 36.597 5.14816 36.8945 5.03444 37.3551C4.92261 37.8062 4.90934 37.8991 4.90555 37.956C4.90555 37.9939 4.90934 38.0242 4.94346 38.0602C4.99653 38.1019 5.33202 38.2441 6.14894 38.4469C6.87678 38.627 7.14404 38.6952 7.326 38.644C7.54587 38.5644 7.67476 38.2611 7.85862 37.5219C8.12018 36.4662 8.13724 35.9336 7.15162 35.3915C7.15162 35.3536 7.18384 35.2645 7.21607 35.1773C7.2426 35.1546 7.25208 35.1583 7.30326 35.1697C7.75627 35.3024 8.35901 35.6038 8.61868 35.7933C8.66796 35.854 8.68122 35.8862 8.66985 35.9298C8.65469 35.9923 8.63763 36.0568 8.55423 36.3506C8.47652 36.6197 8.30972 37.2471 8.12397 37.9958C7.9439 38.7179 7.80744 39.4401 7.6577 40.1698C7.64254 40.185 7.43214 40.1433 7.35443 40.1149C7.33358 40.1092 7.32221 40.0789 7.32411 40.0694C7.34875 39.6353 7.28619 39.5804 7.14024 39.5349C6.99619 39.4799 6.36881 39.2752 5.35286 39.0231L3.62993 38.5947C2.30504 38.2649 1.85392 38.21 1.79137 38.2043C1.72883 38.1986 1.67575 38.2043 1.63215 38.2896C1.56961 38.3692 1.49758 38.5341 1.38385 38.735C1.37627 38.7401 1.36238 38.7401 1.34216 38.735L1.11661 38.6592C1.0768 38.6497 1.06732 38.6459 1.07869 38.6023L1.15641 38.2858C1.22654 38.0053 1.33078 37.6679 1.47863 37.1201L1.6966 36.2444C1.83307 35.6947 1.9468 35.0238 2.04915 34.5689C2.07758 34.4514 2.1117 34.4021 2.15339 34.3642C2.20647 34.3199 2.28987 34.325 2.40359 34.3793C2.82437 34.5613 3.39869 34.7129 3.65836 34.7774C3.5996 35.0124 3.5617 35.0408 3.49915 35.0351C2.75046 34.9821 2.37705 34.9574 2.20078 35.6606L2.04537 36.2823C1.91269 36.8149 1.85961 37.1163 1.8634 37.2244C1.87477 37.3513 1.96955 37.393 2.19889 37.4518C2.89641 37.6243 3.59582 37.7892 4.29523 37.9541C4.38431 37.9768 4.46771 37.9389 4.48477 37.8764L4.62881 37.3002L4.62503 37.3021Z" fill="white"/>
<path d="M9.14361 30.4729C8.30583 30.3857 6.86342 30.2094 4.67042 30.0218C3.95585 29.963 3.90277 29.9573 3.64879 30.361C3.61467 30.4065 3.6014 30.4103 3.56539 30.3933C3.54643 30.3838 3.45546 30.2682 3.43082 30.2246C3.40618 30.181 3.40428 30.1393 3.43082 30.0805C3.50853 29.9213 3.70565 29.5631 3.79094 29.3868C3.9331 29.0949 4.0563 28.7935 4.20414 28.4922C4.22499 28.4505 4.36905 28.4789 4.4714 28.5282C4.50931 28.5471 4.53206 28.568 4.52069 28.6154C4.39559 28.9679 4.36526 29.0987 4.49415 29.1404C4.56238 29.1631 4.7178 29.1973 4.86754 29.2181C6.44453 29.4266 8.61858 29.6275 9.49427 29.6825C9.54923 29.6882 9.59471 29.6389 9.55681 29.5991C9.07537 29.0646 7.64054 27.6013 7.09655 27.0554C7.03022 26.9815 6.95629 26.9663 6.871 26.9569C6.31754 26.8735 5.95172 26.8299 5.72427 26.8014C5.47597 26.773 5.4229 26.809 5.22767 27.19C5.21441 27.2146 5.17081 27.2355 5.14427 27.2203C4.96231 27.1009 4.92251 27.0194 4.95094 26.9607C5.0495 26.7597 5.21062 26.4754 5.36036 26.1665C5.56317 25.7495 5.65414 25.4936 5.7148 25.3666C5.77166 25.3211 6.04081 25.4026 6.03512 25.4614C5.87401 25.9314 5.8778 25.994 6.16401 26.0414C7.30316 26.2347 9.6478 26.5058 11.0125 26.6346C11.058 26.6346 11.0656 26.5967 11.022 26.5456C10.3794 25.8708 8.2357 23.638 7.52113 23.1148C7.34864 22.9992 7.26525 23.0523 7.20839 23.149C7.12878 23.2665 7.05106 23.4238 6.97714 23.5318C6.96008 23.5451 6.93734 23.5432 6.89564 23.5129C6.72884 23.4105 6.67198 23.3632 6.7042 23.2949C6.74401 23.2115 7.01695 22.7225 7.11362 22.5216C7.2444 22.2543 7.36002 21.97 7.39224 21.9037C7.44152 21.8032 7.47943 21.771 7.54009 21.79L7.75616 21.8639C7.77511 21.8733 7.7846 21.898 7.77702 21.915C7.55525 22.3453 7.61211 22.3927 8.38166 23.2532C8.83656 23.7745 10.3794 25.3628 11.5622 26.5702C11.6948 26.718 11.9848 27.0858 12.2369 27.3435C12.29 27.4004 12.2976 27.4762 12.2729 27.5274C12.2237 27.6278 12.1384 27.6373 11.9905 27.6165C11.7991 27.5843 11.5375 27.5407 11.0333 27.4705C10.4477 27.3814 8.93132 27.171 7.68792 27.0516C8.33047 27.7473 9.04694 28.5301 9.98707 29.5043C10.224 29.7431 10.5405 30.1052 10.7869 30.3478C10.8249 30.3857 10.8362 30.4122 10.8324 30.4425C10.84 30.4975 10.8211 30.562 10.7926 30.6188C10.7718 30.6605 10.7282 30.6814 10.6467 30.6624C10.4875 30.6359 9.98897 30.5601 9.15309 30.4729H9.14361Z" fill="white"/>
<path d="M10.7887 21.7653C11.1451 21.2213 12.2994 20.7001 13.4745 21.4715C14.3502 22.0458 14.4772 22.8419 14.4753 22.9954C14.4829 23.4901 14.3881 23.9507 14.1683 24.2843C13.9787 24.5724 13.3987 25.0463 12.7675 25.0539C12.2804 25.0671 11.7554 24.8567 11.454 24.6596C11.1015 24.4284 10.7717 24.0341 10.6295 23.6721C10.5082 23.3707 10.4722 23.1243 10.4817 22.8305C10.5006 22.4647 10.6295 22.006 10.783 21.7729L10.7887 21.7653ZM10.8854 22.3282C10.7982 22.4609 10.766 22.6599 10.8228 22.8533C10.9176 23.2153 11.2133 23.5318 11.7706 23.8977C12.3202 24.2578 12.8206 24.2976 13.1523 24.2597C13.6432 24.2028 13.8991 23.9829 14.0261 23.7877C14.0924 23.6873 14.1664 23.4807 14.1209 23.3063C14.0526 23.0163 13.8517 22.6505 13.3286 22.3074C12.8055 21.9624 12.1648 21.7426 11.6246 21.8544C11.3725 21.8999 11.0598 22.061 10.8911 22.3169L10.8854 22.3245V22.3282Z" fill="white"/>
<path d="M18.1847 18.8975C17.5555 19.6197 17.2863 19.9268 17.0816 20.2414C17.069 20.2553 17.0551 20.2553 17.0399 20.2414C17.0247 20.2281 16.9319 20.1466 16.8996 20.1068C16.8845 20.0936 16.8598 20.0594 16.8636 20.0386C17.0172 19.6917 17.0096 19.6368 16.9072 19.5344C16.7234 19.324 16.3234 18.9392 15.5425 18.2569C15.2184 17.9726 15.0914 17.9006 14.9208 17.8759C14.7332 17.8721 14.4868 17.9536 14.2897 18.1773C14.1494 18.3384 14.0414 18.6511 14.0129 19.0568C14.0091 19.1402 14.03 19.2084 14.0944 19.2766C14.2347 19.4112 14.6934 19.8244 15.0573 20.1409C15.9159 20.8896 15.9595 20.9029 16.2666 20.6281C16.3178 20.5864 16.3386 20.592 16.3614 20.6129C16.3841 20.6337 16.5357 20.7892 16.5281 20.7968C16.4732 20.8593 16.132 21.2649 16.0164 21.3976C15.8818 21.5511 15.6373 21.8942 15.5672 22.006C15.5406 22.0212 15.4042 21.9132 15.3245 21.8317C15.3511 21.7691 15.4023 21.6175 15.4155 21.5549C15.4421 21.4791 15.4288 21.4298 15.3492 21.3502C15.2677 21.2554 15.0478 21.0261 14.428 20.4859C13.8556 19.9874 13.6736 19.8528 13.5751 19.7789C13.4386 19.6841 13.4121 19.6993 13.2604 19.813C13.1524 19.904 13.1126 19.9059 13.0766 19.8983C13.05 19.8983 12.9155 19.832 12.9136 19.8054C12.9382 19.1856 12.9648 18.8255 12.9894 18.6872C12.9989 18.5981 13.0102 18.5696 13.0519 18.5204C13.0879 18.4787 13.1221 18.4711 13.177 18.5185L13.7438 19.0245C13.7817 18.7611 13.8215 18.1545 13.9049 17.8096C13.9333 17.6977 13.9902 17.5878 14.0565 17.5101C14.3863 17.131 14.7938 17.1177 15.2828 17.1974C15.3795 16.6022 15.4136 16.3615 15.4951 16.1113C15.5444 15.9445 15.6145 15.772 15.7548 15.6109C15.8591 15.4915 16.0846 15.3569 16.3196 15.3379C16.5338 15.3266 16.8125 15.3342 17.5346 15.9274C17.9345 16.2648 18.2985 16.5813 18.6169 16.8581C18.9107 17.114 19.0092 17.1879 19.0661 17.2011C19.1798 17.2277 19.2822 17.1557 19.593 16.9092C19.612 16.8884 19.6385 16.8884 19.6689 16.9149C19.6992 16.9434 19.8319 17.1177 19.8129 17.1386L19.3978 17.6143C19.159 17.8873 18.9941 18.1242 18.8747 18.2929C18.8557 18.3138 18.8368 18.3213 18.814 18.3138C18.7856 18.3005 18.6794 18.2341 18.6491 18.2076C18.634 18.1943 18.6188 18.1811 18.6283 18.1526C18.6643 18.0484 18.6832 17.9176 18.6036 17.8228C18.3364 17.5044 17.781 17.0192 17.6104 16.8694C16.9603 16.3027 16.6608 16.1776 16.4372 16.153C16.2021 16.1094 16.0353 16.2098 15.8325 16.4392C15.6619 16.6363 15.5653 16.9339 15.5179 17.2372C15.5084 17.3262 15.5255 17.3547 15.6108 17.4286C16.0524 17.8266 17.0873 18.7175 17.3981 18.9392C17.527 19.0264 17.546 19.0189 17.9061 18.7156C17.9251 18.6947 17.9592 18.7004 17.999 18.7345L18.1847 18.8975Z" fill="white"/>
<path d="M18.9165 12.5251C19.1326 12.3356 19.5003 12.2598 19.7391 12.2958C19.9722 12.3242 20.2129 12.4 20.465 12.5611C20.5143 12.491 20.6129 12.3356 20.6621 12.3489C20.6963 12.347 20.7171 12.3697 20.738 12.4057C20.7778 12.4929 20.8498 12.6749 20.8024 12.7469C20.4347 13.2871 19.7012 14.2689 19.4889 14.6328C19.4605 14.6707 19.4794 14.7219 19.5609 14.8148C20.2508 15.5616 20.8991 15.554 21.3597 15.1484C21.6819 14.8679 21.8259 14.4812 21.86 14.0415C21.8676 13.9789 21.9529 13.9069 21.9643 13.9353C22.1197 14.1268 22.1538 14.1931 22.1519 14.2765C22.0951 14.8186 21.9018 15.2602 21.7312 15.5445C21.6667 15.6564 21.5833 15.7436 21.5056 15.8099C21.0166 16.2383 20.4176 16.189 20.2395 16.1549C20.012 16.1207 19.5135 15.9596 19.0719 15.4573C18.4767 14.7769 18.3801 13.9486 18.5014 13.3231C18.5544 13.0312 18.7118 12.7033 18.907 12.5308L18.9146 12.5251H18.9165ZM19.9874 13.1127C19.7978 12.8966 19.2216 12.7734 18.9278 13.0312C18.8861 13.0672 18.8369 13.1525 18.8217 13.2624C18.7535 13.5941 18.9733 14.0851 19.2709 14.3959C19.5116 14.0225 19.7789 13.6775 20.0196 13.3174C20.0556 13.2587 20.0708 13.2056 19.995 13.1203L19.9893 13.1127H19.9874Z" fill="white"/>
<path d="M22.9403 14.1457C23.1109 13.8879 23.1621 13.7647 23.0256 13.5221C22.8872 13.2435 22.5555 12.7355 22.2674 12.3242C22.0381 11.9963 21.8106 11.7044 21.6969 11.5585C21.6381 11.4751 21.5832 11.4618 21.1681 11.6134C21.1093 11.5926 21.1055 11.621 21.0411 11.4637C21.024 11.4391 21.0354 11.4049 21.0676 11.3576C21.2723 10.9519 21.4657 10.516 21.4808 10.4553C21.4922 10.4231 21.5169 10.3928 21.5472 10.3719C21.5851 10.3454 21.6401 10.3435 21.6647 10.3776C21.7727 10.516 21.8921 10.6695 21.9926 10.8136C22.021 10.8553 22.0533 10.8837 22.0836 10.8628C22.2712 10.4174 22.3546 10.2601 22.4892 10.0156C22.5631 9.86396 22.6958 9.69527 22.8342 9.5986C23.054 9.44507 23.2493 9.39769 23.4805 9.42233C23.797 9.45076 24.1155 9.68011 24.3979 10.0213C24.5362 10.1862 24.6784 10.389 24.9305 10.751C25.3589 11.3651 25.6204 11.7215 25.755 11.9148C25.8081 11.9906 25.8213 11.9925 25.8441 11.9774C25.9123 11.93 26.117 11.7499 26.2251 11.6608C26.2478 11.6438 26.2857 11.6684 26.3217 11.7177C26.3577 11.7689 26.4165 11.9015 26.4317 11.9413C26.4468 11.9944 26.4317 12.0039 26.4014 12.0266C25.7228 12.5005 25.5181 12.6938 25.2281 12.8966C25.1826 12.9289 25.1447 12.9554 25.1125 12.927L24.957 12.7848C25.12 12.546 25.1561 12.4209 25.0215 12.1631C24.8831 11.8845 24.6727 11.5679 24.2557 10.9709C23.9316 10.5084 23.7591 10.2772 23.4369 10.19C23.2151 10.1331 23.001 10.1824 22.7792 10.3359C22.5953 10.4629 22.3887 10.7832 22.2978 11.0107C22.2693 11.1187 22.2978 11.1737 22.3546 11.2704C22.5442 11.5755 23.3857 12.7791 23.7042 13.2321C23.78 13.3421 23.8065 13.3477 24.2501 13.1374C24.3012 13.1146 24.3202 13.126 24.3372 13.1639L24.4206 13.3819L23.7724 13.8349C23.4672 14.0472 23.2531 14.2613 23.1014 14.3675C23.0863 14.3789 23.0673 14.3675 23.0427 14.3334L22.9346 14.1457H22.9403Z" fill="white"/>
<path d="M26.8182 4.49992C27.0343 4.39188 27.2769 4.52267 27.3869 4.74254C27.5423 5.05528 27.4362 5.3377 27.2201 5.44574C27.0211 5.5462 26.7671 5.45522 26.6439 5.20692C26.4828 4.88469 26.6287 4.59469 26.8107 4.50371L26.8182 4.49992ZM27.7489 7.56861C27.7167 7.52691 27.6541 7.52501 27.2277 7.64632C27.1898 7.6539 27.1727 7.63874 27.1746 7.58188C27.1499 7.38665 27.15 7.3639 27.186 7.33547C27.4513 7.05305 27.6731 6.77064 27.9688 6.45031C27.9802 6.43325 27.9896 6.42757 28.0067 6.41998C28.0237 6.4124 28.0313 6.42946 28.0598 6.48443C28.3384 7.12508 28.9449 8.4405 29.1837 8.91815C29.4169 9.38632 29.5003 9.55122 29.5628 9.65736C29.6443 9.77677 29.6879 9.82416 29.7656 9.77298C30.0139 9.62514 30.0803 9.59292 30.1049 9.57965C30.1295 9.56638 30.2073 9.59671 30.213 9.62893L30.3077 9.87913C30.3267 9.93788 30.3096 9.94736 30.2679 9.96821C30.0272 10.0895 29.7846 10.1862 29.5192 10.3208C29.1534 10.5027 28.8483 10.7245 28.8236 10.7378C28.7819 10.7586 28.7611 10.7586 28.7345 10.7245C28.6852 10.6695 28.6397 10.5766 28.6132 10.5217C28.5943 10.4857 28.6075 10.4667 28.6322 10.4553C28.9127 10.2696 28.9658 10.207 28.8862 9.92651C28.8369 9.7673 28.5658 9.10011 28.2607 8.52959L27.7489 7.56861Z" fill="white"/>
<path d="M30.7911 9.40906C31.0185 9.20057 31.0982 9.09253 31.0243 8.82338C30.956 8.52011 30.7551 7.9477 30.5731 7.47953C30.4291 7.10613 30.2774 6.76685 30.2035 6.59816C30.1675 6.50149 30.1163 6.47685 29.6766 6.52613C29.6235 6.49201 29.614 6.51855 29.5894 6.35175C29.578 6.32332 29.597 6.29489 29.6425 6.25508C29.9382 5.91012 30.2301 5.53293 30.2585 5.47796C30.2774 5.44953 30.3078 5.42679 30.3438 5.41352C30.3874 5.39646 30.4405 5.40973 30.4556 5.44764C30.5277 5.60685 30.6054 5.78502 30.6679 5.94803C30.6869 5.99541 30.7096 6.03143 30.7456 6.01816C31.0356 5.63149 31.1531 5.49881 31.3427 5.29221C31.4526 5.16143 31.6213 5.03064 31.7767 4.96999C32.0288 4.87332 32.2278 4.87332 32.4477 4.95293C32.7472 5.05718 33.0012 5.35476 33.1964 5.7528C33.2912 5.94613 33.3802 6.17737 33.5395 6.58868C33.8105 7.28809 33.9773 7.6956 34.0626 7.91547C34.0967 8.00077 34.1081 8.00835 34.1346 7.99698C34.2123 7.96665 34.4531 7.84155 34.5782 7.7809C34.6047 7.77142 34.6369 7.80175 34.6578 7.86051C34.6805 7.91737 34.707 8.06142 34.7127 8.10312C34.7127 8.15809 34.6976 8.16377 34.6616 8.17894C33.8901 8.47652 33.6437 8.61488 33.3139 8.74188C33.2627 8.76273 33.2191 8.77978 33.1945 8.74377L33.077 8.56939C33.2912 8.37606 33.3575 8.26233 33.2893 7.98181C33.221 7.67665 33.094 7.32031 32.8306 6.63986C32.6278 6.11293 32.514 5.84757 32.2221 5.68646C32.0212 5.57652 31.8014 5.57463 31.5493 5.6713C31.3408 5.7528 31.064 6.01247 30.92 6.21149C30.8669 6.30816 30.8821 6.37071 30.9143 6.47874C31.0261 6.81992 31.555 8.19031 31.7559 8.70586C31.8052 8.83096 31.8298 8.84233 32.3093 8.74567C32.3643 8.73429 32.3814 8.75135 32.387 8.79305L32.4174 9.02429L31.6801 9.30861C31.3332 9.44318 31.0754 9.59671 30.901 9.66495C30.884 9.67253 30.8669 9.65547 30.8537 9.61756L30.793 9.40906H30.7911Z" fill="white"/>
<path d="M38.8598 3.48019C39.2711 3.40627 39.582 3.33993 39.8075 3.27738C40.3496 3.13901 40.3875 3.08973 40.3989 2.47182C40.4292 2.43581 40.6377 2.37705 40.6851 2.37895C40.7192 2.67463 40.7496 3.15039 40.8064 3.46313C40.8765 3.8062 40.9543 4.08293 41.0358 4.37104C40.9656 4.40326 40.8955 4.4279 40.8311 4.43927C40.7875 4.45633 40.7628 4.42979 40.7382 4.39378C40.6813 4.28953 40.6055 4.136 40.5581 4.02038C40.4539 3.75692 40.3288 3.68679 39.9573 3.72091C39.7526 3.73607 39.4493 3.79104 38.9811 3.87633C38.5243 3.95783 38.4333 3.98437 38.3803 4.00522C38.3462 4.02228 38.3196 4.03555 38.3007 4.08293C38.2836 4.14738 38.2931 4.5113 38.4409 5.3396C38.5736 6.07691 38.6229 6.34985 38.7442 6.49391C38.9072 6.6626 39.237 6.65502 39.9895 6.52044C41.0585 6.32711 41.5513 6.1243 41.6423 5.00221C41.6783 4.98515 41.7693 4.97947 41.8641 4.97378C41.8944 4.98894 41.8963 5.00032 41.9057 5.0496C41.9721 5.51777 41.9418 6.19064 41.8754 6.50528C41.8394 6.57351 41.8167 6.60005 41.7712 6.60763C41.7067 6.619 41.6423 6.63038 41.339 6.67587C41.0623 6.71567 40.4216 6.81992 39.6616 6.95639C38.928 7.08907 38.2116 7.25966 37.4856 7.42077C37.4648 7.41319 37.4174 7.20279 37.4136 7.12129C37.4098 7.10044 37.4345 7.0758 37.442 7.07391C37.8477 6.91659 37.8723 6.83887 37.8552 6.68724C37.8458 6.53182 37.7756 5.87789 37.5899 4.84679L37.2752 3.09921C37.0326 1.75536 36.8981 1.3213 36.8791 1.26255C36.8583 1.20379 36.8317 1.1564 36.737 1.15261C36.6384 1.12797 36.4583 1.12987 36.229 1.10902C36.2214 1.10396 36.2157 1.09133 36.2119 1.07111L36.1892 0.836077C36.1816 0.796273 36.1797 0.784901 36.2271 0.777319L36.5474 0.718561C36.8298 0.667385 37.1824 0.625685 37.7415 0.534705L38.6286 0.37549C39.1858 0.275033 39.8473 0.104445 40.3022 0.0115693C40.4216 -0.00928034 40.4804 0.000196766 40.5316 0.0229418C40.5935 0.0532685 40.6232 0.131613 40.6207 0.257974C40.6282 0.716666 40.7249 1.30235 40.7723 1.56581C40.5335 1.60941 40.4918 1.58477 40.4728 1.52601C40.2131 0.820914 40.0842 0.470261 39.3697 0.59915L38.7366 0.712875C38.1964 0.809541 37.8988 0.885358 37.8041 0.932744C37.6922 0.995292 37.6922 1.09954 37.7339 1.33078C37.8609 2.03777 37.9974 2.74287 38.1339 3.44797C38.1509 3.53895 38.2173 3.5996 38.2817 3.58823L38.8674 3.48398L38.8598 3.48019Z" fill="white"/>
<path d="M42.7683 6.24561C43.0507 6.12051 43.1588 6.0447 43.1758 5.76607C43.21 5.45712 43.2024 4.85058 43.1815 4.34829C43.1664 3.94836 43.1303 3.58065 43.1133 3.3949C43.1095 3.29255 43.0697 3.25274 42.6394 3.15797C42.5996 3.10869 42.5826 3.12954 42.6129 2.96464C42.6129 2.93242 42.6394 2.91157 42.6944 2.88882C43.0849 2.65758 43.4829 2.39412 43.5284 2.35052C43.5549 2.32967 43.5928 2.3164 43.6288 2.3164C43.6762 2.31451 43.7236 2.34294 43.7236 2.38464C43.7407 2.55902 43.7577 2.75235 43.7653 2.92673C43.7672 2.97791 43.7786 3.01961 43.8165 3.01771C44.2145 2.74477 44.3681 2.65568 44.6145 2.523C44.7604 2.43392 44.9613 2.36379 45.1281 2.3581C45.3973 2.34673 45.5868 2.41118 45.7688 2.55712C46.019 2.75235 46.163 3.11627 46.2199 3.55601C46.2483 3.77019 46.2578 4.0166 46.2767 4.45823C46.3071 5.20692 46.3355 5.64855 46.345 5.88358C46.3488 5.97646 46.3582 5.98594 46.3867 5.98404C46.4701 5.98025 46.7373 5.93855 46.8776 5.92339C46.9041 5.92339 46.925 5.96319 46.9288 6.02385C46.9307 6.0845 46.9098 6.23045 46.9022 6.27215C46.8852 6.32522 46.8662 6.32522 46.8302 6.32711C46.0038 6.36123 45.7271 6.4143 45.3745 6.42947C45.3196 6.43136 45.2722 6.43326 45.2627 6.39345L45.2077 6.19064C45.4731 6.07692 45.5717 5.99162 45.5963 5.70162C45.6304 5.39267 45.6228 5.01169 45.5925 4.28385C45.5698 3.71902 45.547 3.43281 45.3233 3.1864C45.1679 3.01771 44.9594 2.94379 44.6903 2.95516C44.4685 2.96464 44.1197 3.12196 43.9226 3.26411C43.8411 3.33993 43.8354 3.40058 43.8297 3.51431C43.826 3.87254 43.8866 5.3396 43.9094 5.89496C43.9151 6.02764 43.934 6.04849 44.4211 6.10914C44.478 6.11672 44.4875 6.13757 44.4799 6.17927L44.4344 6.40672L43.6459 6.43894C43.2744 6.45411 42.9787 6.51855 42.793 6.52613C42.774 6.52613 42.7645 6.50718 42.7626 6.46548L42.7721 6.2494L42.7683 6.24561Z" fill="white"/>
<path d="M49.533 2.28798C49.7738 2.30503 50.0524 2.44909 50.2135 2.55333C50.2742 2.6102 50.35 2.60451 50.367 2.60641C50.5244 2.61778 51.0702 2.53438 51.2655 2.54954C51.3394 2.55523 51.4342 2.65379 51.4417 2.69549C51.4493 2.72771 51.4588 2.97412 51.455 3.01582C51.4512 3.07647 51.4 3.13523 51.2882 3.13712C51.1859 3.12954 50.9072 3.12006 50.4997 3.08026C50.621 3.33614 50.7063 3.70196 50.6855 3.99006C50.6324 4.70653 50.1131 5.30738 49.3776 5.57084C49.0232 5.68836 48.8014 5.7964 48.5891 5.90444C48.5304 5.93097 48.4981 6.0011 48.4944 6.03143C48.4811 6.21529 48.6972 6.32333 48.9474 6.34228C49.0592 6.34986 49.6449 6.37261 49.7264 6.37829C50.1168 6.40672 50.4637 6.48444 50.7613 6.76306C50.8921 6.88626 50.9925 7.14973 50.9679 7.49849C50.9432 7.82639 50.8485 7.99509 50.5718 8.31352C50.0429 8.91247 49.6051 9.05652 49.3644 9.14182C49.1445 9.20816 48.7123 9.24796 48.4451 9.229C47.4348 9.15508 47.0747 8.59404 47.105 8.18273C47.1316 7.83397 47.2813 7.55724 47.5163 7.4094C47.7608 7.2426 47.958 7.11182 48.2499 6.92796C47.8651 6.7043 47.6528 6.55457 47.6755 6.24751C47.6831 6.15463 47.685 6.11483 47.7476 6.03712C47.8461 5.95182 48.2821 5.74712 48.6763 5.57084C48.3958 5.46659 48.1721 5.33771 47.9561 5.09699C47.7153 4.82215 47.5978 4.39189 47.6263 3.99196C47.6718 3.37784 48.0015 2.92863 48.4432 2.63105C48.7654 2.42824 49.1312 2.25954 49.5217 2.28798H49.5312H49.533ZM48.8753 8.71345C49.4136 8.75325 49.7946 8.63574 50.0619 8.40829C50.2609 8.24718 50.4144 8.05384 50.4315 7.80744C50.4429 7.66528 50.4447 7.50986 50.2704 7.34306C50.0789 7.16489 49.8136 7.08339 49.4895 7.05875C49.1653 7.03411 48.773 7.04738 48.5379 7.08149C48.4432 7.09476 48.3276 7.1592 48.1684 7.30136C47.9106 7.50986 47.7987 7.76763 47.7874 7.92116C47.7741 8.10502 47.939 8.64142 48.8659 8.70966H48.8753V8.71345ZM50.0372 4.30091C50.0619 3.973 50.0183 3.53706 49.8818 3.25085C49.77 3.00634 49.5103 2.72013 49.0933 2.68791C48.9265 2.67654 48.773 2.73719 48.6043 2.87745C48.428 3.00823 48.3314 3.30013 48.3105 3.58634C48.2821 3.98627 48.4015 4.50941 48.6422 4.77287C48.9265 5.0913 49.135 5.16901 49.3018 5.18039C49.6449 5.20692 49.9861 4.99464 50.0372 4.30849V4.29712V4.30091Z" fill="white"/>
<path d="M52.5089 3.56359C52.5089 3.51242 52.4578 3.47261 52.0389 3.32287C52.0048 3.30771 51.9972 3.28497 52.0332 3.23948C52.1261 3.06699 52.1393 3.04804 52.1867 3.04614C52.5658 2.97222 52.9108 2.86987 53.3391 2.78268C53.3581 2.7751 53.3676 2.77699 53.3865 2.78078C53.4036 2.78268 53.4017 2.80353 53.3922 2.86418C53.2463 3.54843 52.9733 4.96999 52.8899 5.49692C52.8084 6.01437 52.7781 6.19633 52.7686 6.31953C52.7648 6.46359 52.7724 6.52803 52.8653 6.53182C53.1534 6.55646 53.2273 6.56783 53.2538 6.57352C53.2823 6.57731 53.3259 6.64744 53.3126 6.67587L53.2425 6.93554C53.2235 6.9943 53.2065 6.99241 53.1591 6.98483C52.8937 6.94313 52.6397 6.88247 52.3459 6.83509C51.9422 6.77064 51.565 6.77254 51.5385 6.76875C51.493 6.76117 51.476 6.7479 51.4741 6.7062C51.4665 6.63228 51.4835 6.53182 51.493 6.47117C51.4987 6.43136 51.5195 6.42189 51.548 6.42757C51.8853 6.43894 51.9631 6.41999 52.0635 6.14516C52.1166 5.98784 52.2853 5.28653 52.3687 4.64588L52.5127 3.56738L52.5089 3.56359ZM53.5381 0.527129C53.777 0.565038 53.8983 0.813338 53.8585 1.05595C53.8035 1.40092 53.5514 1.56772 53.3126 1.52981C53.0927 1.49379 52.9392 1.27203 52.9828 0.999089C53.0397 0.644646 53.3259 0.493012 53.5287 0.525234H53.5381V0.527129Z" fill="white"/>
<path d="M53.9019 6.8313C54.2089 6.79339 54.334 6.75169 54.4307 6.49012C54.552 6.20391 54.7188 5.62012 54.842 5.133C54.9405 4.74444 55.0145 4.38241 55.0505 4.20235C55.0751 4.10189 55.0505 4.05451 54.6638 3.83843C54.6411 3.77967 54.6164 3.79483 54.6942 3.64509C54.7017 3.61477 54.7339 3.6015 54.7927 3.59581C55.2324 3.48588 55.6911 3.34751 55.7442 3.31908C55.7764 3.30581 55.8162 3.30581 55.8504 3.3134C55.8958 3.32477 55.9338 3.36647 55.9224 3.40627C55.8883 3.57686 55.8485 3.7683 55.8068 3.93888C55.7935 3.98817 55.7935 4.02986 55.8295 4.03934C56.2882 3.8915 56.4626 3.8498 56.7355 3.79294C56.9004 3.74934 57.1127 3.73987 57.2757 3.78156C57.5373 3.8479 57.7003 3.96353 57.833 4.15686C58.0168 4.41464 58.0509 4.80509 57.9789 5.24293C57.9429 5.45712 57.8823 5.69594 57.7742 6.12241C57.5904 6.84835 57.4899 7.27861 57.433 7.50796C57.4103 7.59705 57.416 7.61031 57.4444 7.616C57.5259 7.63685 57.7951 7.67286 57.9315 7.6975C57.9581 7.70508 57.9675 7.74868 57.9505 7.80933C57.9353 7.86809 57.8728 8.00077 57.8538 8.03868C57.8235 8.08417 57.8045 8.07848 57.7685 8.06901C56.9668 7.8662 56.6862 7.83776 56.3432 7.75058C56.2882 7.73731 56.2446 7.72593 56.2446 7.68234L56.2503 7.47195C56.5365 7.43783 56.6559 7.38476 56.762 7.11561C56.8833 6.8294 56.9857 6.46358 57.1639 5.75659C57.3041 5.21071 57.3648 4.92829 57.2207 4.62882C57.1203 4.42222 56.9421 4.29333 56.6806 4.22699C56.4645 4.17202 56.0873 4.22509 55.856 4.30281C55.7575 4.35209 55.7328 4.40895 55.6968 4.51699C55.5907 4.86006 55.2287 6.28352 55.0922 6.81992C55.06 6.94881 55.0713 6.97345 55.5206 7.17247C55.5717 7.19522 55.5755 7.21796 55.5566 7.25587L55.4466 7.46058L54.6809 7.26535C54.3207 7.17437 54.0194 7.14973 53.8393 7.10424C53.8223 7.10045 53.8166 7.0777 53.8279 7.0379L53.8981 6.83319L53.9019 6.8313Z" fill="white"/>
<path d="M61.4949 5.06097C61.766 5.16143 62.0067 5.44764 62.0901 5.67509C62.1773 5.89306 62.2247 6.14136 62.2038 6.43894C62.2891 6.44842 62.473 6.46169 62.4843 6.50907C62.5033 6.5375 62.4919 6.56783 62.4692 6.60195C62.4104 6.67966 62.2853 6.8294 62.2 6.81992C61.5499 6.75548 60.3368 6.5811 59.916 6.56783C59.8686 6.56025 59.8326 6.60195 59.7909 6.71946C59.4649 7.68234 59.7815 8.24717 60.3577 8.45946C60.7595 8.6073 61.167 8.55044 61.5688 8.37037C61.6276 8.34763 61.7318 8.38554 61.7129 8.41207C61.6181 8.63952 61.5764 8.70018 61.5025 8.73998C61.0002 8.94848 60.5188 8.99018 60.1871 8.97691C60.0601 8.97312 59.9426 8.9409 59.8459 8.90678C59.2356 8.68122 58.9929 8.13155 58.938 7.95907C58.8584 7.74299 58.7617 7.22744 58.993 6.60195C59.3057 5.7547 59.9881 5.27326 60.5946 5.08182C60.877 4.98895 61.2409 4.96999 61.4835 5.06097L61.493 5.06476L61.4949 5.06097ZM61.4892 6.28352C61.5878 6.01437 61.421 5.44764 61.0552 5.31306C61.0021 5.29411 60.9054 5.29032 60.8012 5.32823C60.4771 5.42868 60.1511 5.85515 60.0203 6.26456C60.4638 6.29679 60.8941 6.36881 61.3243 6.40672C61.3926 6.41051 61.4475 6.39724 61.4854 6.2911L61.4892 6.28162V6.28352Z" fill="white"/>
<path d="M65.2537 6.67586C65.5133 6.79906 65.7275 7.10612 65.792 7.34115C65.8602 7.56671 65.8848 7.81691 65.8375 8.11259C65.9209 8.12965 66.1028 8.15998 66.1104 8.20926C66.1275 8.23958 66.1123 8.26801 66.0877 8.30024C66.0232 8.37226 65.8849 8.51063 65.7996 8.49357C65.1589 8.37037 63.9648 8.08795 63.5459 8.03677C63.5004 8.0254 63.4606 8.0652 63.4075 8.17514C62.9962 9.10579 63.2597 9.69527 63.8151 9.96063C64.2017 10.1445 64.6111 10.1236 65.03 9.98147C65.0907 9.96442 65.1911 10.0118 65.1684 10.0364C65.0547 10.2544 65.0054 10.3113 64.9296 10.3435C64.4102 10.5065 63.9269 10.5027 63.5971 10.461C63.4701 10.4459 63.3564 10.4042 63.2635 10.3606C62.6759 10.08 62.4826 9.51331 62.4447 9.33514C62.384 9.11337 62.3347 8.59024 62.6228 7.98749C63.0114 7.17246 63.7354 6.75357 64.3553 6.6171C64.6452 6.55076 65.0092 6.56403 65.2442 6.67586L65.2518 6.67965L65.2537 6.67586ZM65.1381 7.89272C65.2613 7.63305 65.1456 7.05495 64.7931 6.88815C64.7438 6.8654 64.6452 6.85214 64.5391 6.88057C64.2074 6.9507 63.8435 7.34684 63.6767 7.74298C64.1164 7.81501 64.5372 7.92494 64.9637 8.00266C65.03 8.01213 65.0869 8.00266 65.1343 7.9022L65.1381 7.89272Z" fill="white"/>
<path d="M65.5132 11.0391C65.7388 11.0751 65.79 11.0808 65.8734 10.9747C65.9511 10.878 66.0894 10.6373 66.5387 9.86587L67.003 9.06789C67.1262 8.85561 67.1414 8.79306 66.8855 8.51254C66.8362 8.44809 66.8647 8.30973 66.9101 8.26613C67.3442 8.22254 67.7877 8.21875 68.146 8.17705C68.1877 8.17705 68.2464 8.18842 68.2635 8.1979C68.2957 8.21685 68.2995 8.30215 68.2369 8.37228C68.0948 8.59783 67.9526 8.78737 67.8048 9.05842C68.0171 9.06221 68.7601 8.91437 68.9117 8.89352C69.0198 8.87456 69.1449 8.86319 69.2169 8.90489C69.4254 9.0262 69.5296 9.38443 69.4159 9.57966C69.3325 9.72181 68.9818 9.86208 68.87 9.89051C68.8018 9.89809 68.7392 9.90946 68.6918 9.88103C68.6426 9.8526 68.6293 9.82227 68.6236 9.75783C68.616 9.62325 68.5649 9.45077 68.436 9.37685C68.2597 9.2745 67.9488 9.30672 67.7233 9.36548C67.6361 9.38633 67.5527 9.49247 67.3101 9.90946L66.6656 11.0183C66.5367 11.24 66.478 11.3614 66.4761 11.4182C66.4761 11.477 66.4913 11.5206 66.5841 11.5642L67.0277 11.7992C67.0675 11.8219 67.075 11.8864 67.0466 11.9167L66.8381 12.165C66.4856 11.9584 66.1311 11.7537 65.7767 11.5471C65.5682 11.4258 65.3559 11.3272 65.3009 11.295C65.2687 11.2761 65.2687 11.24 65.3237 11.2002L65.5151 11.0372L65.5132 11.0391Z" fill="white"/>
<path d="M70.2215 10.4553C70.2424 10.408 70.214 10.3511 69.8955 10.0383C69.8709 10.0099 69.8747 9.98717 69.9259 9.96063C70.0832 9.84312 70.1021 9.83174 70.1457 9.8488C70.521 9.93978 70.8774 9.99285 71.3019 10.0933C71.3228 10.0933 71.3304 10.1009 71.3455 10.1104C71.3607 10.1217 71.3493 10.1388 71.3152 10.19C70.8963 10.7491 70.051 11.9262 69.7553 12.3678C69.4634 12.8038 69.361 12.9554 69.3004 13.0634C69.2359 13.1923 69.217 13.2549 69.3004 13.2966C69.5506 13.4406 69.6131 13.4823 69.6359 13.4975C69.6586 13.5127 69.6719 13.596 69.6454 13.615L69.4729 13.8216C69.4312 13.8671 69.416 13.8576 69.3762 13.8311C69.1525 13.6813 68.9478 13.5183 68.7014 13.3534C68.3621 13.126 68.0191 12.9706 67.9944 12.9554C67.9565 12.9289 67.9471 12.9099 67.9622 12.8701C67.9869 12.8 68.0437 12.7147 68.0778 12.6635C68.1006 12.6294 68.1214 12.6313 68.1442 12.6464C68.4455 12.7981 68.5251 12.8151 68.7298 12.6066C68.8436 12.4853 69.2909 11.9186 69.6359 11.3727L70.2177 10.4534L70.2215 10.4553ZM72.4297 8.12966C72.6306 8.26423 72.6363 8.54096 72.4998 8.74567C72.3046 9.03567 72.0051 9.08116 71.8061 8.94658C71.6204 8.82338 71.5749 8.55802 71.7284 8.32678C71.9274 8.0292 72.2534 8.01024 72.424 8.12397L72.4316 8.12966H72.4297Z" fill="white"/>
<path d="M70.1097 14.0055C70.4053 14.0964 70.538 14.1097 70.7314 13.9088C70.9588 13.6965 71.3492 13.234 71.662 12.8398C71.9103 12.5251 72.1264 12.2257 72.2344 12.074C72.2989 11.9944 72.2951 11.9395 72.0297 11.5831C72.0335 11.5206 72.0051 11.5244 72.1358 11.4182C72.1548 11.3936 72.1889 11.3955 72.2458 11.4144C72.6931 11.494 73.1651 11.5547 73.2276 11.5528C73.2617 11.5528 73.2977 11.568 73.3262 11.5926C73.3622 11.621 73.3811 11.6741 73.3546 11.7063C73.2542 11.8485 73.1404 12.0077 73.0305 12.1442C72.9983 12.184 72.9812 12.2219 73.0097 12.2446C73.4892 12.2977 73.6636 12.3318 73.9365 12.3906C74.1052 12.419 74.3023 12.4967 74.4331 12.601C74.6435 12.7678 74.7459 12.9402 74.7876 13.1715C74.8482 13.4823 74.7212 13.8538 74.4767 14.2215C74.3573 14.4016 74.2038 14.5949 73.9289 14.9418C73.4627 15.5294 73.1954 15.88 73.0495 16.0658C72.9926 16.1378 72.9926 16.1511 73.0134 16.17C73.0798 16.2212 73.3091 16.3653 73.4247 16.4449C73.4475 16.4619 73.4361 16.5055 73.3982 16.5548C73.3603 16.6041 73.2485 16.6989 73.2163 16.7254C73.1689 16.7538 73.1556 16.7424 73.1253 16.7197C72.477 16.206 72.2325 16.0639 71.9558 15.844C71.9122 15.8099 71.8762 15.7815 71.8933 15.7436L71.9842 15.554C72.2591 15.6412 72.3898 15.6412 72.5983 15.4384C72.8258 15.2261 73.0684 14.9342 73.5214 14.3637C73.8721 13.9221 74.0426 13.6908 74.0351 13.3572C74.0275 13.1279 73.9176 12.9364 73.7072 12.7696C73.5328 12.6313 73.1651 12.5232 72.9225 12.5024C72.8125 12.5062 72.767 12.5479 72.6893 12.6313C72.4505 12.9004 71.5388 14.051 71.1938 14.485C71.1104 14.5893 71.1123 14.6177 71.4402 14.9816C71.4782 15.0233 71.4725 15.046 71.4402 15.0726L71.2564 15.2147L70.6366 14.7238C70.3447 14.4926 70.0812 14.3485 69.9353 14.2329C69.9201 14.2215 69.9258 14.1988 69.9523 14.1685L70.1002 14.0111L70.1097 14.0055Z" fill="white"/>
<path d="M77.7803 15.336C77.9547 15.5028 78.0779 15.7928 78.1328 15.9748C78.1442 16.0563 78.2049 16.1018 78.2182 16.1132C78.3319 16.2231 78.8057 16.5074 78.9479 16.6439C79.001 16.6951 79.0104 16.8315 78.9896 16.8694C78.9744 16.8979 78.8247 17.095 78.7962 17.1234C78.7526 17.1689 78.6768 17.1803 78.5896 17.1102C78.5157 17.04 78.3072 16.8524 78.021 16.5624C77.9509 16.8353 77.7822 17.1727 77.5832 17.3793C77.0847 17.8968 76.3019 18.0256 75.5665 17.7603C75.2196 17.6257 74.9789 17.567 74.7476 17.512C74.6851 17.4949 74.6169 17.529 74.5941 17.5499C74.4652 17.6826 74.5619 17.9043 74.7438 18.0787C74.8234 18.1564 75.2613 18.5469 75.32 18.6056C75.6006 18.8767 75.8204 19.1591 75.8697 19.5628C75.8925 19.741 75.8015 20.0102 75.5589 20.2622C75.3314 20.4992 75.1495 20.5655 74.7344 20.6375C73.944 20.7607 73.5156 20.5902 73.2768 20.503C73.0664 20.4139 72.7082 20.1694 72.5129 19.9836C71.7832 19.2804 71.8647 18.6189 72.149 18.3232C72.3916 18.073 72.6835 17.9536 72.9584 17.9915C73.254 18.02 73.4872 18.0446 73.8303 18.0901C73.6767 17.6731 73.6085 17.421 73.8227 17.1992C73.8871 17.1329 73.9155 17.1026 74.0122 17.0817C74.143 17.0798 74.6093 17.1992 75.0244 17.3149C74.8746 17.0552 74.7855 16.8126 74.7742 16.4904C74.7647 16.1245 74.9485 15.7189 75.2272 15.4308C75.6536 14.9873 76.1957 14.8527 76.7246 14.9058C77.1017 14.9551 77.4922 15.0593 77.7727 15.3304L77.7803 15.3379V15.336ZM73.1688 19.8604C73.5573 20.2338 73.925 20.3873 74.2776 20.3854C74.5316 20.3892 74.7761 20.3362 74.9467 20.1599C75.0471 20.0556 75.1457 19.9381 75.1191 19.6993C75.085 19.4396 74.9334 19.2084 74.7002 18.9828C74.4652 18.7573 74.1563 18.5166 73.9535 18.3915C73.872 18.3422 73.7412 18.3156 73.5289 18.3251C73.1991 18.3213 72.9451 18.4483 72.8389 18.5583C72.7101 18.6909 72.4959 19.2103 73.165 19.8547L73.1706 19.8604H73.1688ZM76.8819 17.2068C77.1093 16.9699 77.3557 16.6079 77.4334 16.2989C77.5036 16.0374 77.4865 15.6526 77.1851 15.3626C77.0657 15.247 76.9084 15.1958 76.6866 15.1958C76.4668 15.1844 76.2071 15.3474 76.0081 15.554C75.7314 15.8421 75.4887 16.3217 75.5058 16.6799C75.521 17.1064 75.6328 17.2997 75.7522 17.4153C76.0005 17.6541 76.3985 17.7091 76.8762 17.2144L76.8838 17.2068H76.8819Z" fill="white"/>
<path d="M77.4963 64.9487H4.76147V66.0556H77.4963V64.9487Z" fill="white"/>
<path d="M14.4071 70.6179C14.4336 70.5439 14.4488 70.5041 14.4621 70.4643C14.7502 69.5394 15.0383 68.6144 15.3226 67.6875C15.3491 67.6003 15.3832 67.5643 15.4799 67.5662C15.8154 67.5738 16.1509 67.5681 16.4883 67.57C16.5243 67.57 16.5603 67.5738 16.6039 67.5757V72.2801H15.5974V69.6417C15.5974 69.6417 15.5842 69.6398 15.5785 69.6379C15.3112 70.5193 15.0421 71.3988 14.7729 72.2839H13.9996C13.7323 71.3969 13.467 70.5098 13.1921 69.5981V72.2801H12.1895V67.5776H13.4689C13.7778 68.5784 14.0868 69.5811 14.4071 70.6179Z" fill="white"/>
<path d="M60.9965 69.7479C61.5083 69.9128 61.804 70.5136 61.7433 71.0728C61.6637 71.8196 61.2713 72.2233 60.4847 72.2726C59.8289 72.3143 59.1674 72.282 58.5002 72.282V67.5757C58.5419 67.5738 58.5761 67.57 58.6121 67.57C59.1409 67.57 59.6697 67.57 60.1966 67.57C60.462 67.57 60.7217 67.6023 60.9586 67.7236C61.404 67.9529 61.5519 68.3472 61.5367 68.8172C61.5253 69.2191 61.3699 69.547 60.9927 69.7479H60.9965ZM59.6091 71.5315C59.7796 71.5315 59.9351 71.539 60.0886 71.5315C60.318 71.5182 60.5227 71.4424 60.6136 71.2149C60.7179 70.9534 60.7217 70.6842 60.5568 70.4416C60.5056 70.3658 60.4127 70.29 60.3274 70.271C60.0962 70.2217 59.8574 70.2047 59.6091 70.1725V71.5334V71.5315ZM59.6129 69.4617C59.9047 69.4465 60.2194 69.528 60.4127 69.2172C60.5378 69.0162 60.5132 68.6599 60.3767 68.4931C60.2478 68.3339 59.8668 68.2562 59.6015 68.3377C59.6015 68.6826 59.6015 69.0295 59.6015 69.3764C59.6015 69.401 59.6072 69.4238 59.6129 69.4598V69.4617Z" fill="white"/>
<path d="M46.2597 69.1356V67.5719C46.6426 67.5378 47.0122 67.5056 47.4007 67.4715V71.575C47.4007 71.6035 47.4007 71.6319 47.4007 71.6603C47.4007 71.8575 47.4254 71.8802 47.6377 71.8745C47.6377 71.9826 47.6434 72.0925 47.6339 72.1986C47.632 72.2271 47.5865 72.2631 47.5543 72.2745C47.2927 72.3598 47.0274 72.392 46.7563 72.3237C46.5497 72.2726 46.3924 72.1588 46.3109 71.9447C46.2692 71.992 46.2332 72.0356 46.1953 72.0735C45.7517 72.5228 44.9576 72.4299 44.5766 71.8859C44.3965 71.6281 44.3074 71.3362 44.2714 71.0273C44.2127 70.525 44.2278 70.0284 44.4306 69.5545C44.6865 68.9518 45.2949 68.6675 45.8636 68.893C46.0038 68.948 46.1252 69.0485 46.2616 69.1319L46.2597 69.1356ZM46.2616 70.5894C46.2616 70.4094 46.2616 70.2293 46.2616 70.0492C46.2616 69.8237 46.0815 69.6095 45.8731 69.5849C45.638 69.5564 45.4712 69.6683 45.4409 69.945C45.4011 70.2994 45.403 70.6615 45.403 71.0197C45.403 71.1429 45.4466 71.268 45.4845 71.3874C45.5224 71.503 45.6096 71.5788 45.7328 71.5997C45.9981 71.6452 46.2597 71.4253 46.2616 71.1543C46.2616 70.9666 46.2616 70.779 46.2616 70.5894Z" fill="white"/>
<path d="M75.3753 72.2839H74.2456V67.57C74.6171 67.5378 74.9867 67.5056 75.3677 67.4715V69.3024C75.4018 69.2721 75.4189 69.2607 75.4302 69.2437C75.7259 68.8608 76.2567 68.7168 76.7002 68.9025C77.0281 69.039 77.1778 69.3119 77.2385 69.6417C77.2593 69.7573 77.2688 69.8767 77.2688 69.9962C77.2707 70.7259 77.2688 71.4537 77.2688 72.1835C77.2688 72.2157 77.265 72.246 77.2631 72.2839H76.1316V72.1475C76.1316 71.5163 76.1316 70.887 76.1316 70.2558C76.1316 70.1535 76.124 70.0511 76.1126 69.9507C76.0993 69.8218 76.0557 69.7081 75.9117 69.6739C75.7638 69.6379 75.635 69.6739 75.5326 69.7877C75.4094 69.9279 75.3734 70.0985 75.3734 70.2786C75.3734 70.9003 75.3734 71.5239 75.3734 72.1456C75.3734 72.1892 75.3734 72.2347 75.3734 72.2877L75.3753 72.2839Z" fill="white"/>
<path d="M23.9128 72.2783V67.5776H26.5588V68.4419H25.0709V69.4257H26.248V70.2938H25.0747V71.4158H26.5569V72.2802H23.9128V72.2783Z" fill="white"/>
<path d="M29.8491 72.2821H27.2107V67.5776H29.8529V68.4381H28.365V69.4219H29.5401V70.2938H28.3631V71.4121H29.8491V72.2821Z" fill="white"/>
<path d="M31.6592 68.44V69.4238H32.8343V70.2919H31.6611V71.4158H33.1433V72.2821H30.5049V67.5776H33.1471V68.44H31.6592Z" fill="white"/>
<path d="M6.90509 70.8813C7.03018 70.9818 7.14013 71.0785 7.25764 71.1619C7.53816 71.3609 7.84522 71.4879 8.19776 71.4556C8.39489 71.4386 8.53704 71.3381 8.59959 71.1467C8.66024 70.9628 8.60339 70.7581 8.43659 70.6444C8.3077 70.5553 8.15796 70.4928 8.0177 70.4188C7.76181 70.2843 7.48698 70.1762 7.25385 70.0094C6.74777 69.6436 6.63973 69.0579 6.79894 68.4514C6.93541 67.9321 7.37516 67.5852 7.94378 67.517C8.48398 67.4506 8.98436 67.5568 9.44306 67.8543C9.52266 67.9055 9.53783 67.9548 9.50751 68.0439C9.42979 68.2751 9.36345 68.5121 9.29522 68.7357C9.0962 68.6428 8.91234 68.5329 8.71143 68.4704C8.54842 68.4192 8.36645 68.4059 8.19397 68.404C8.04044 68.4021 7.92104 68.4874 7.87176 68.6428C7.82058 68.8021 7.85091 68.9499 7.9798 69.056C8.07267 69.1319 8.18829 69.183 8.29633 69.2399C8.57116 69.3821 8.86495 69.4977 9.12083 69.6683C9.61743 70 9.77665 70.4928 9.70652 71.0709C9.64776 71.5561 9.44495 71.9541 8.99005 72.1721C8.40436 72.4526 7.80352 72.4223 7.21783 72.1683C7.03019 72.0868 6.86528 71.9503 6.6928 71.8328C6.66626 71.8139 6.63973 71.7608 6.64731 71.7343C6.72692 71.4519 6.8141 71.1732 6.90319 70.8813H6.90509Z" fill="white"/>
<path d="M19.7675 68.7376C19.5666 68.6447 19.3865 68.5348 19.1894 68.4741C19.0207 68.4211 18.8368 68.4078 18.6587 68.4059C18.5089 68.404 18.3952 68.4893 18.344 68.639C18.2909 68.7964 18.3175 68.948 18.4464 69.0522C18.543 69.1319 18.6606 69.1849 18.7724 69.2418C19.0434 69.382 19.3334 69.4958 19.5855 69.6645C20.084 69.9943 20.2546 70.489 20.175 71.0652C20.0689 71.8461 19.6481 72.2517 18.8558 72.3446C18.2435 72.4166 17.6863 72.2669 17.203 71.8745C17.1271 71.8139 17.1025 71.757 17.1366 71.6566C17.2219 71.4064 17.294 71.1505 17.3755 70.8794C17.4589 70.9496 17.5309 71.0121 17.6048 71.0728C17.8815 71.2964 18.1867 71.4518 18.5506 71.4651C18.8975 71.4784 19.1268 71.2642 19.0775 70.9496C19.0605 70.8434 18.9922 70.7202 18.9088 70.6539C18.7837 70.5534 18.6302 70.4852 18.4805 70.4226C18.2037 70.307 17.9289 70.1914 17.6958 70C17.2541 69.6379 17.0873 69.0466 17.2712 68.4495C17.4437 67.8923 17.8455 67.6004 18.4085 67.5226C18.9524 67.4487 19.4566 67.5587 19.9191 67.8619C19.9949 67.9112 20.0063 67.9605 19.9798 68.042C19.9039 68.2751 19.8357 68.5102 19.7656 68.7414L19.7675 68.7376Z" fill="white"/>
<path d="M35.052 70.8719C35.3022 71.105 35.5467 71.3078 35.8594 71.3931C36.0224 71.4367 36.1987 71.4556 36.3655 71.45C36.5512 71.4424 36.6896 71.3305 36.7427 71.1467C36.7957 70.959 36.7635 70.779 36.6005 70.6596C36.4678 70.5629 36.3105 70.4966 36.1627 70.4188C35.903 70.2805 35.6244 70.1724 35.3893 70.0019C34.8908 69.6398 34.7847 69.0541 34.9439 68.4514C35.0804 67.9321 35.5201 67.5852 36.0888 67.517C36.6289 67.4506 37.1293 67.5568 37.588 67.8543C37.6657 67.9055 37.6828 67.9529 37.6525 68.0439C37.5748 68.2751 37.5084 68.5121 37.4402 68.7376C37.2431 68.6447 37.0573 68.5348 36.8564 68.4723C36.6934 68.4192 36.5114 68.4078 36.3389 68.4059C36.1854 68.404 36.066 68.4893 36.0167 68.6447C35.9656 68.804 35.994 68.9518 36.1248 69.0579C36.2176 69.1338 36.3333 69.1849 36.4413 69.2418C36.7161 69.3839 37.0099 69.4996 37.2658 69.6702C37.7643 70.0019 37.9216 70.4947 37.8534 71.0728C37.7946 71.558 37.5918 71.956 37.1369 72.174C36.5512 72.4545 35.9504 72.4242 35.3647 72.1702C35.177 72.0887 35.0122 71.9522 34.8416 71.8347C34.8131 71.8158 34.7885 71.7551 34.798 71.7248C34.8776 71.4462 34.9629 71.1713 35.0539 70.8756L35.052 70.8719Z" fill="white"/>
<path d="M42.5238 68.9006H43.663V69.0466C43.663 69.9147 43.663 70.7828 43.663 71.6509C43.663 71.8556 43.6857 71.8764 43.898 71.8783C43.898 71.9826 43.9037 72.0887 43.8942 72.193C43.8923 72.2214 43.8525 72.2631 43.8203 72.2726C43.536 72.3692 43.246 72.4015 42.9541 72.3067C42.7399 72.2366 42.6072 72.0849 42.558 71.8897C42.4158 72.0053 42.2869 72.1475 42.1258 72.2347C41.4321 72.6081 40.6967 72.2005 40.6436 71.4139C40.6208 71.0804 40.6284 70.743 40.6284 70.4075C40.6265 69.9526 40.6284 69.4977 40.6284 69.0447C40.6284 69.0011 40.6284 68.9556 40.6284 68.9044H41.7713V69.0352C41.7713 69.674 41.7713 70.3127 41.7713 70.9515C41.7713 71.05 41.7751 71.1486 41.7884 71.2453C41.8036 71.3685 41.8453 71.4803 41.9836 71.5144C42.1334 71.5523 42.2793 71.5315 42.3722 71.4045C42.4366 71.3154 42.4764 71.2036 42.5087 71.0955C42.5314 71.0235 42.5257 70.942 42.5257 70.8643C42.5257 70.2615 42.5257 69.6607 42.5257 69.0579V68.9006H42.5238Z" fill="white"/>
<path d="M51.2371 72.2802V68.9328C51.5934 68.9025 51.944 68.8722 52.3061 68.84C52.3174 69.0124 52.3288 69.1698 52.3383 69.3138C52.4653 69.2001 52.5809 69.0693 52.7212 68.9783C53.2007 68.6732 53.8698 68.8172 54.1048 69.2778C54.1825 69.4313 54.247 69.6095 54.2508 69.7782C54.2659 70.6084 54.2583 71.4405 54.2583 72.2783H53.1287C53.1287 72.2366 53.1287 72.193 53.1287 72.1494C53.1287 71.5182 53.1287 70.887 53.1287 70.2577C53.1287 70.1554 53.1211 70.053 53.1097 69.9526C53.0964 69.8256 53.0567 69.71 52.9126 69.6721C52.7648 69.6322 52.6359 69.6683 52.5335 69.7801C52.4084 69.9185 52.3724 70.089 52.3705 70.2691C52.3705 70.8908 52.3705 71.5144 52.3705 72.1361C52.3705 72.1797 52.3705 72.2252 52.3705 72.2783H51.2389L51.2371 72.2802Z" fill="white"/>
<path d="M70.8792 72.2839H69.7419V72.1513C69.7419 71.5201 69.7419 70.8889 69.7419 70.2596C69.7419 70.1573 69.7344 70.0549 69.723 69.9545C69.7097 69.8275 69.6699 69.7119 69.5278 69.6739C69.3799 69.6341 69.2511 69.6702 69.1487 69.782C69.0236 69.9203 68.9857 70.0909 68.9857 70.271C68.9857 70.8927 68.9857 71.5163 68.9857 72.138V72.2801H67.8579V68.9328C68.2086 68.9025 68.5611 68.8722 68.9212 68.84C68.9326 69.0124 68.944 69.1698 68.9573 69.3612C69.1032 69.1319 69.2757 68.9821 69.4994 68.8968C70.2101 68.6258 70.8508 69.056 70.8716 69.8407C70.8906 70.5326 70.8792 71.2244 70.8792 71.9181C70.8792 72.0356 70.8792 72.155 70.8792 72.2858V72.2839Z" fill="white"/>
<path d="M66.063 71.9465C65.9929 72.0072 65.936 72.0584 65.8773 72.1077C65.6366 72.3048 65.3579 72.3825 65.0528 72.3579C64.6528 72.3256 64.3761 72.0015 64.3628 71.5542C64.3496 71.0671 64.5827 70.7202 64.9845 70.4738C65.2499 70.3108 65.5418 70.2236 65.8488 70.1743C65.9019 70.1649 65.9531 70.1573 66.0043 70.1497C66.082 69.8218 65.9455 69.6379 65.6195 69.6379C65.2764 69.6379 64.9618 69.7498 64.6604 69.9052C64.632 69.9203 64.6035 69.9355 64.5637 69.9583C64.56 69.9185 64.5524 69.89 64.5524 69.8597C64.5524 69.7043 64.5524 69.5488 64.5524 69.3934C64.5524 69.1167 64.5524 69.1148 64.8177 69.02C65.3276 68.8381 65.8469 68.7509 66.3814 68.8968C66.8799 69.0333 67.1264 69.3517 67.1302 69.8692C67.1339 70.4757 67.1302 71.0803 67.1302 71.6869C67.1302 71.8632 67.1586 71.8878 67.3481 71.8745C67.3481 71.9826 67.3538 72.0925 67.3443 72.1986C67.3424 72.2271 67.2988 72.265 67.2647 72.2745C67.0032 72.3616 66.7378 72.392 66.4687 72.3237C66.2696 72.2726 66.1275 72.155 66.0592 71.9465H66.063ZM66.0232 70.7164C65.8697 70.7733 65.7332 70.8093 65.6081 70.8718C65.4394 70.9571 65.3314 71.0955 65.3049 71.2907C65.2764 71.4992 65.3693 71.6603 65.5361 71.6907C65.6934 71.7191 66.01 71.5296 66.0194 71.3836C66.0327 71.1732 66.0232 70.9609 66.0232 70.7164Z" fill="white"/>
<path d="M50.6438 70.7922H49.0877C49.1028 71.0804 49.1313 71.3628 49.4042 71.503C49.8003 71.7096 50.1737 71.6149 50.5149 71.3192C50.5888 71.4822 50.6646 71.6338 50.7272 71.7911C50.7386 71.8177 50.7082 71.8726 50.6817 71.8992C50.2875 72.2764 49.8098 72.4053 49.281 72.3484C48.629 72.2783 48.2328 71.8954 48.0736 71.2775C47.9239 70.6956 47.9296 70.1156 48.2177 69.5678C48.5115 69.0068 49.1047 68.73 49.7245 68.8494C50.2097 68.9442 50.5471 69.3024 50.6438 69.8332C50.7007 70.1459 50.6855 70.4606 50.6438 70.7922ZM49.0725 70.2141H49.7833C49.7605 70.0246 49.7492 69.8464 49.7132 69.6721C49.6885 69.5507 49.5994 69.4711 49.4667 69.4692C49.3416 69.4692 49.2507 69.5356 49.2166 69.6512C49.1597 69.8332 49.1218 70.0189 49.0725 70.216V70.2141Z" fill="white"/>
<path d="M38.4523 69.5716H38.1055V68.9006H38.4466V68.0799C38.8276 68.042 39.201 68.006 39.5877 67.9681V68.8911H40.1582V69.5697H39.5896V69.7024C39.5896 70.2066 39.5896 70.7107 39.5896 71.213C39.5896 71.2832 39.5953 71.3514 39.6047 71.4215C39.6313 71.6281 39.7469 71.7077 39.9478 71.6547C40.0217 71.6357 40.09 71.5997 40.1658 71.5694C40.1923 71.7267 40.2208 71.8783 40.2378 72.0318C40.2416 72.0698 40.2132 72.1304 40.1809 72.1475C39.8094 72.356 39.4133 72.4318 39.0001 72.2972C38.6532 72.1835 38.4561 71.8707 38.4523 71.4367C38.4466 70.8643 38.4504 70.2899 38.4504 69.7175C38.4504 69.6739 38.4504 69.6303 38.4504 69.5716H38.4523Z" fill="white"/>
<path d="M56.7072 68.8911V69.5716H56.1442C56.1385 69.6171 56.1348 69.6455 56.1348 69.672C56.1348 70.2047 56.1348 70.7373 56.1348 71.2699C56.1348 71.2983 56.1348 71.3267 56.1386 71.3552C56.1689 71.6584 56.3376 71.7513 56.6105 71.6129C56.6389 71.5978 56.6674 71.5826 56.7072 71.5618C56.7356 71.7305 56.764 71.8897 56.7849 72.0508C56.7887 72.0811 56.7603 72.1304 56.7318 72.1456C56.3433 72.3635 55.9319 72.445 55.5055 72.282C55.1302 72.138 55.0051 71.8158 54.9975 71.4443C54.988 70.8718 54.9937 70.2975 54.9937 69.7251C54.9937 69.6815 54.9937 69.636 54.9937 69.5773H54.6506V68.8987H54.9918V68.0818C55.3709 68.0458 55.7405 68.0098 56.1253 67.9718V68.893H56.7072V68.8911Z" fill="white"/>
<path d="M4.98682 72.2821V67.5776H6.12786V72.2821H4.98682Z" fill="white"/>
<path d="M10.2749 67.5719H11.4103V72.2802H10.2749V67.5719Z" fill="white"/>
<path d="M23.1356 72.2877H22.0002V67.5757H23.1356V72.2877Z" fill="white"/>
<path d="M73.7317 71.2623C73.7317 71.5277 73.7355 71.7684 73.7279 72.0091C73.7279 72.0508 73.6976 72.1096 73.6635 72.1285C73.5346 72.1967 73.4038 72.2745 73.2655 72.3086C72.3652 72.5285 71.6108 72.0527 71.4212 71.141C71.298 70.5515 71.3321 69.9734 71.6657 69.4484C72.0619 68.8248 72.9565 68.622 73.5896 69.003C73.6881 69.0617 73.7431 69.13 73.7355 69.257C73.7223 69.4673 73.7317 69.6815 73.7317 69.9204C73.6787 69.8805 73.6446 69.854 73.6104 69.8294C73.4152 69.6796 73.1916 69.6455 72.9584 69.691C72.7215 69.7384 72.604 69.9128 72.549 70.1326C72.4808 70.4113 72.4751 70.6937 72.5338 70.9723C72.64 71.4822 73.0987 71.6717 73.546 71.3969C73.6048 71.3609 73.6559 71.3173 73.7317 71.2623Z" fill="white"/>
<path d="M62.2285 68.9309C62.5848 68.9006 62.9336 68.8703 63.2918 68.84C63.3032 69.0087 63.3145 69.1641 63.3221 69.3006C63.4434 69.1868 63.5553 69.0466 63.6993 68.9594C63.8415 68.876 64.0158 68.8475 64.1978 68.7869V69.8673C64.1542 69.8559 64.1125 69.8445 64.0689 69.8351C63.6424 69.7422 63.3562 69.9677 63.3543 70.4018C63.3505 70.9799 63.3543 71.5561 63.3543 72.1342C63.3543 72.1797 63.3543 72.2233 63.3543 72.2764H62.2266V68.9291L62.2285 68.9309Z" fill="white"/>
<path d="M22.6672 76.1354C22.5762 76.5088 22.4834 76.8822 22.3924 77.2556C22.182 78.1218 21.9716 78.988 21.7593 79.8543C21.7157 80.0324 21.6532 80.0798 21.4674 80.0798C21.439 80.0798 21.4087 80.0798 21.3802 80.0798C21.1888 80.0798 21.1357 80.04 21.0921 79.8543C20.9462 79.2439 20.8002 78.6336 20.6562 78.0214C20.4344 77.0888 20.2127 76.1563 19.9909 75.2237C19.9644 75.1157 19.9283 75.0058 20.0345 74.9224C20.1444 74.8371 20.279 74.8485 20.3927 74.8977C20.4553 74.9243 20.5121 75.0152 20.5292 75.0873C20.8097 76.2283 21.0827 77.3732 21.3594 78.5161C21.3878 78.6374 21.4182 78.7587 21.475 78.8838C21.494 78.808 21.5148 78.7322 21.5319 78.6563C21.7953 77.4888 22.0588 76.3212 22.3204 75.1536C22.3791 74.892 22.6653 74.7632 22.8985 74.9072C22.9572 74.9432 23.0027 75.0285 23.0198 75.0986C23.3003 76.3136 23.5732 77.5305 23.85 78.7473C23.8613 78.7966 23.8727 78.8459 23.8898 78.9198C23.9087 78.8705 23.922 78.844 23.9277 78.8156C24.2215 77.5911 24.5172 76.3667 24.811 75.1422C24.8659 74.911 24.9133 74.8712 25.1294 74.8731C25.3398 74.8731 25.4251 74.983 25.3777 75.1915C25.2943 75.546 25.209 75.9004 25.1237 76.2549C24.8432 77.4357 24.5608 78.6165 24.2802 79.7974C24.2158 80.0646 24.0149 80.1784 23.7609 80.0628C23.6908 80.0305 23.6225 79.9358 23.6036 79.858C23.3041 78.6601 23.0141 77.4603 22.7203 76.2605C22.7108 76.2207 22.6994 76.179 22.69 76.1392C22.6843 76.1392 22.6767 76.1392 22.671 76.1392L22.6672 76.1354Z" fill="white"/>
<path d="M62.1698 77.7409C61.9803 77.7409 61.7851 77.7409 61.5879 77.7409C61.4117 77.7409 61.2354 77.7428 61.0591 77.7409C60.8999 77.739 60.8241 77.6518 60.8222 77.4831C60.8222 77.303 60.8942 77.2139 61.0591 77.2139C61.5576 77.212 62.0561 77.212 62.5565 77.2139C62.7119 77.2139 62.7896 77.2935 62.7896 77.4471C62.7896 78.2014 62.7896 78.9558 62.7896 79.7102C62.7896 79.858 62.7214 79.9604 62.5887 79.9945C61.9101 80.1765 61.2221 80.2599 60.5265 80.0988C59.7967 79.9301 59.2926 79.4809 59.0424 78.7814C58.722 77.883 58.7202 76.9694 59.0651 76.0767C59.3627 75.309 59.9617 74.9091 60.7615 74.8011C61.2183 74.7404 61.6732 74.7499 62.1111 74.9186C62.2002 74.9527 62.2854 74.9982 62.3688 75.0475C62.5205 75.1366 62.5698 75.2635 62.5034 75.3773C62.3954 75.563 62.2608 75.6066 62.0864 75.5346C61.9064 75.4588 61.7225 75.3735 61.533 75.3432C61.1084 75.273 60.6876 75.3034 60.2933 75.4967C59.901 75.69 59.6925 76.0369 59.5674 76.4349C59.3058 77.2651 59.3475 78.0801 59.7399 78.8629C59.9806 79.3444 60.3976 79.5699 60.9188 79.6249C61.3188 79.6666 61.713 79.6173 62.1073 79.5472C62.1376 79.5415 62.1831 79.4922 62.1831 79.4619C62.1869 78.9009 62.1831 78.3379 62.1831 77.7769C62.1831 77.7693 62.1774 77.7617 62.1679 77.7409H62.1698Z" fill="white"/>
<path d="M74.8066 76.9031C74.9639 76.6756 75.1591 76.4975 75.4226 76.4046C76.0613 76.1828 76.7058 76.4349 76.9977 77.0509C77.354 77.8053 77.3597 78.5881 77.0413 79.3539C76.7418 80.0722 76.031 80.3508 75.2766 80.0855C75.1364 80.0362 75.0037 79.9661 74.8521 79.8978V80.1423C74.8521 80.5404 74.8521 80.9384 74.8521 81.3365C74.8521 81.6056 74.6208 81.7383 74.382 81.6094C74.2853 81.5563 74.2607 81.4672 74.2607 81.3649C74.2607 81.0806 74.2607 80.7944 74.2607 80.5101C74.2607 79.2572 74.2607 78.0043 74.2607 76.7514C74.2607 76.7135 74.2493 76.6699 74.2645 76.6396C74.2986 76.5733 74.3327 76.4937 74.3915 76.4595C74.4692 76.4141 74.562 76.4501 74.6094 76.5297C74.6815 76.6472 74.7383 76.7723 74.8066 76.9012V76.9031ZM76.6735 78.2829C76.6622 77.8773 76.5977 77.5456 76.4726 77.303C76.3684 77.1002 76.2149 76.9505 75.9912 76.8917C75.4491 76.7477 74.8521 77.212 74.8502 77.7769C74.8502 78.192 74.8577 78.6071 74.8464 79.0222C74.8407 79.1909 74.907 79.3027 75.0283 79.3975C75.0871 79.4429 75.1515 79.4865 75.2179 79.5207C75.8415 79.841 76.4499 79.5624 76.5958 78.8819C76.6375 78.6867 76.6489 78.4839 76.6735 78.2848V78.2829Z" fill="white"/>
<path d="M7.08324 79.5491C7.14199 79.5491 7.18749 79.5491 7.23298 79.5491C7.88311 79.5491 8.53134 79.5491 9.18147 79.5491C9.36153 79.5491 9.43546 79.6287 9.43546 79.8126C9.43546 80.0002 9.36343 80.0779 9.18147 80.0779C8.37212 80.0779 7.56468 80.0779 6.75533 80.0779C6.57148 80.0779 6.49756 80.004 6.49756 79.8164C6.49756 78.2526 6.49756 76.6908 6.49756 75.1271C6.49756 74.9489 6.57338 74.8712 6.74776 74.8712C7.56089 74.8712 8.37402 74.8712 9.18716 74.8712C9.36343 74.8712 9.43546 74.9489 9.43546 75.1271C9.43546 75.3147 9.36343 75.3943 9.18337 75.3943C8.53324 75.3943 7.885 75.3943 7.23487 75.3943C7.18559 75.3943 7.13631 75.3943 7.08134 75.3943V77.2064H7.21782C7.77128 77.2064 8.32474 77.2064 8.87821 77.2064C9.0867 77.2064 9.16062 77.2746 9.16062 77.466C9.16062 77.6632 9.0848 77.7352 8.87062 77.7352C8.32094 77.7352 7.77317 77.7352 7.2235 77.7352C7.17801 77.7352 7.13441 77.7352 7.08134 77.7352V79.5453L7.08324 79.5491Z" fill="white"/>
<path d="M10.9311 75.3962V77.2083C10.9822 77.2083 11.0258 77.2083 11.0713 77.2083C11.6286 77.2083 12.1858 77.2083 12.7431 77.2083C12.9364 77.2083 13.0103 77.2822 13.0103 77.4717C13.0103 77.6594 12.9326 77.7371 12.7431 77.7371C12.1896 77.7371 11.6362 77.7371 11.0827 77.7371C11.0372 77.7371 10.9917 77.7371 10.9349 77.7371V79.5472H11.0713C11.7215 79.5472 12.3697 79.5472 13.0198 79.5472C13.1184 79.5472 13.2226 79.5605 13.2492 79.659C13.2757 79.7576 13.2738 79.8751 13.2454 79.9718C13.2302 80.0211 13.1279 80.0722 13.0634 80.0722C12.2294 80.0798 11.3955 80.0779 10.5615 80.076C10.4364 80.076 10.3587 79.9983 10.3454 79.8751C10.3416 79.8429 10.3435 79.8088 10.3435 79.7747C10.3435 78.2413 10.3435 76.7079 10.3435 75.1726C10.3435 74.9281 10.4022 74.8693 10.6487 74.8693C11.4315 74.8693 12.2162 74.8731 12.999 74.8674C13.289 74.8655 13.3117 75.0532 13.2719 75.2408C13.2454 75.3659 13.1354 75.3943 13.016 75.3943C12.3716 75.3943 11.7253 75.3943 11.0808 75.3943C11.0353 75.3943 10.9898 75.3943 10.9311 75.3943V75.3962Z" fill="white"/>
<path d="M14.7785 75.3962V77.2083H14.915C15.459 77.2083 16.0049 77.2083 16.5489 77.2083C16.7839 77.2083 16.8559 77.2708 16.8559 77.4698C16.8559 77.6688 16.7782 77.739 16.5526 77.739C16.0087 77.739 15.4628 77.739 14.9188 77.739C14.8733 77.739 14.8297 77.739 14.7785 77.739V79.5491H14.9169C15.5613 79.5491 16.2077 79.5567 16.8521 79.5453C17.1232 79.5415 17.1668 79.7405 17.1156 79.9377C17.091 80.0324 17.0132 80.0779 16.9147 80.0779C16.0807 80.0779 15.2467 80.0779 14.4127 80.0779C14.2819 80.0779 14.2042 79.9983 14.1928 79.8675C14.1891 79.8334 14.1928 79.8012 14.1928 79.7671C14.1928 78.2375 14.1928 76.7079 14.1928 75.1783C14.1928 74.9319 14.2516 74.8731 14.4942 74.8731C15.277 74.8731 16.0617 74.8731 16.8445 74.8731C17.0815 74.8731 17.1914 75.0153 17.1232 75.2427C17.0853 75.3659 16.9867 75.4 16.8673 75.3981C16.2228 75.3981 15.5765 75.3981 14.9321 75.3981C14.8828 75.3981 14.8335 75.3981 14.7785 75.3981V75.3962Z" fill="white"/>
<path d="M28.1603 75.3962V77.2083C28.2115 77.2083 28.255 77.2083 28.3005 77.2083C28.8578 77.2083 29.415 77.2083 29.9723 77.2083C30.1675 77.2083 30.2395 77.2803 30.2395 77.4717C30.2395 77.6594 30.1618 77.7371 29.9723 77.7371C29.3733 77.7371 28.7744 77.7371 28.164 77.7371V79.5472H28.3005C28.9507 79.5472 29.5989 79.5472 30.249 79.5472C30.4802 79.5472 30.6092 79.7747 30.4803 79.9699C30.4443 80.023 30.3589 80.0722 30.2945 80.0722C29.4605 80.0798 28.6265 80.0779 27.7926 80.076C27.6618 80.076 27.5859 79.9964 27.5746 79.8637C27.5727 79.8296 27.5746 79.7974 27.5746 79.7633C27.5746 78.2337 27.5746 76.7041 27.5746 75.1745C27.5746 74.93 27.6333 74.8712 27.8797 74.8712C28.6625 74.8712 29.4472 74.875 30.2301 74.8693C30.5201 74.8674 30.5428 75.0551 30.503 75.2427C30.4765 75.3678 30.3665 75.3981 30.2471 75.3962C29.6027 75.3962 28.9563 75.3962 28.3119 75.3962C28.2664 75.3962 28.2209 75.3962 28.1603 75.3962Z" fill="white"/>
<path d="M35.1961 78.6924C34.9232 78.6924 34.6502 78.6981 34.3792 78.6905C34.2787 78.6867 34.2427 78.7246 34.2162 78.8137C34.1157 79.1586 34.0077 79.5017 33.9053 79.8467C33.8333 80.0912 33.7423 80.0988 33.5035 80.0722C33.3727 80.0571 33.314 79.9206 33.3633 79.7633C33.4713 79.4107 33.5831 79.0601 33.6931 78.7094C34.0684 77.5153 34.4418 76.3231 34.8171 75.129C34.8891 74.9015 34.9289 74.8731 35.1658 74.8731C35.2037 74.8731 35.2416 74.8731 35.2795 74.8731C35.4425 74.875 35.5051 74.9186 35.5544 75.074C35.8121 75.8909 36.0699 76.7098 36.3258 77.5286C36.557 78.2678 36.7902 79.0051 37.0214 79.7443C37.0764 79.9225 37.0385 80.04 36.8982 80.0665C36.6897 80.1063 36.5552 80.0893 36.4983 79.8997C36.3884 79.532 36.2746 79.1624 36.1685 78.7928C36.1457 78.7132 36.1097 78.6886 36.0301 78.6905C35.7534 78.6962 35.4766 78.6905 35.1999 78.6905L35.1961 78.6924ZM35.96 78.1616C35.706 77.322 35.4539 76.4918 35.2018 75.6616C35.1923 75.6616 35.1847 75.6654 35.1753 75.6673C34.9232 76.4956 34.673 77.3258 34.419 78.1616H35.96Z" fill="white"/>
<path d="M54.9501 79.2458C55.1548 78.4839 55.3481 77.7617 55.5415 77.0377C55.5813 76.8879 55.6211 76.7382 55.6628 76.5903C55.7102 76.4198 55.858 76.4084 56.0513 76.4425C56.1802 76.4652 56.2333 76.579 56.1935 76.7287C55.8504 78.0138 55.5092 79.2989 55.1605 80.584C55.0828 80.8721 54.9558 81.1412 54.7549 81.3687C54.4156 81.7554 53.8375 81.8369 53.4489 81.5507C53.3674 81.49 53.2954 81.4199 53.3143 81.3137C53.3352 81.1962 53.3882 81.0825 53.5152 81.0465C53.5816 81.0275 53.6669 81.0332 53.7294 81.0597C54.0156 81.1792 54.2298 81.1413 54.3928 80.8816C54.5141 80.6901 54.5937 80.4703 54.679 80.258C54.698 80.2087 54.6771 80.1348 54.6563 80.0779C54.2772 78.9918 53.8962 77.9058 53.5171 76.8197C53.5001 76.7685 53.466 76.7117 53.4735 76.6643C53.4868 76.5922 53.5134 76.5013 53.5664 76.4634C53.7256 76.3496 53.9701 76.4406 54.0365 76.6264C54.2715 77.2973 54.5047 77.9702 54.7397 78.6412C54.806 78.8307 54.8724 79.0184 54.952 79.2439L54.9501 79.2458Z" fill="white"/>
<path d="M69.5545 78.1635C69.5469 78.6848 69.4767 79.1075 69.2455 79.4884C68.6598 80.4437 67.1928 80.421 66.6715 79.4297C66.264 78.6545 66.2773 77.8451 66.6715 77.0642C66.9464 76.524 67.5643 76.2511 68.1955 76.3439C68.9233 76.452 69.3763 76.9201 69.4995 77.6992C69.5279 77.8811 69.5412 78.065 69.5526 78.1635H69.5545ZM66.9445 78.2356C66.9559 78.2375 66.9691 78.2413 66.9805 78.2432C66.9767 78.5218 67.0089 78.7947 67.1151 79.0544C67.2743 79.4448 67.5643 79.6496 67.9585 79.6514C68.3641 79.6533 68.6693 79.4581 68.8228 79.0639C69.0408 78.5009 69.0256 77.9342 68.8058 77.3732C68.7375 77.1969 68.6219 77.0547 68.4494 76.9656C67.9396 76.6984 67.3141 76.9164 67.117 77.4547C67.026 77.7011 66.9995 77.9721 66.9445 78.2318V78.2356Z" fill="white"/>
<path d="M45.7725 76.8936C45.9146 76.7742 46.0606 76.6283 46.2274 76.5126C46.7562 76.1506 47.7589 76.2947 47.992 77.1798C48.0621 77.4452 48.1038 77.7238 48.1133 77.9968C48.1323 78.6128 48.1228 79.2288 48.1228 79.8448C48.1228 80.0021 48.047 80.0741 47.8916 80.0779C47.8537 80.0779 47.8158 80.0779 47.7778 80.0779C47.6148 80.0741 47.539 80.0021 47.539 79.8391C47.539 79.3273 47.5428 78.8156 47.5371 78.3057C47.5333 78.0669 47.522 77.8281 47.4916 77.5911C47.4537 77.3049 47.376 77.032 47.0576 76.9296C46.7259 76.8216 46.4302 76.905 46.197 77.1533C46.072 77.286 45.9753 77.4452 45.8843 77.6025C45.8426 77.6726 45.8293 77.7693 45.8293 77.8546C45.8256 78.4877 45.8275 79.1207 45.8275 79.7538C45.8275 80.0324 45.6644 80.1556 45.401 80.0665C45.3422 80.0476 45.2929 79.9794 45.2588 79.9225C45.2342 79.8789 45.238 79.8163 45.238 79.7633C45.238 78.7492 45.238 77.7352 45.238 76.7211C45.238 76.687 45.2266 76.6472 45.2418 76.6226C45.2759 76.5657 45.3157 76.488 45.3688 76.4709C45.4218 76.4539 45.5223 76.4785 45.5545 76.5221C45.6455 76.6434 45.7118 76.7818 45.7763 76.8936H45.7725Z" fill="white"/>
<path d="M72.805 79.6097C72.6496 79.8126 72.4581 79.9794 72.2193 80.0817C71.5313 80.3793 70.7769 80.0343 70.593 79.3046C70.5059 78.9596 70.4812 78.5938 70.466 78.2356C70.4452 77.7295 70.4622 77.2215 70.4603 76.7154C70.4603 76.6055 70.4698 76.4937 70.5892 76.4558C70.7162 76.4141 70.8622 76.3913 70.9721 76.4861C71.0252 76.5316 71.0479 76.632 71.0498 76.7098C71.0593 77.3333 71.0536 77.9588 71.065 78.5824C71.0688 78.7606 71.0953 78.9426 71.1389 79.115C71.2508 79.5718 71.662 79.7709 72.0942 79.5775C72.4411 79.4221 72.6325 79.1245 72.7633 78.7814C72.7766 78.7454 72.769 78.698 72.769 78.6563C72.769 78.0157 72.769 77.3732 72.769 76.7325C72.769 76.4652 72.9794 76.3345 73.2239 76.452C73.3338 76.505 73.3547 76.6036 73.3547 76.7154C73.3547 77.629 73.3547 78.5426 73.3547 79.4562C73.3547 79.587 73.3528 79.7159 73.3547 79.8467C73.3566 79.9395 73.3281 80.0135 73.239 80.0495C73.1462 80.0874 73.0684 80.0495 73.0192 79.9756C72.9433 79.8618 72.8827 79.7405 72.8069 79.6097H72.805Z" fill="white"/>
<path d="M38.0808 76.9808C37.9084 76.9808 37.7529 76.9808 37.5994 76.9808C37.4137 76.9789 37.3378 76.8993 37.3359 76.7079C37.3359 76.5145 37.4099 76.433 37.5956 76.433C37.751 76.433 37.9046 76.433 38.0808 76.433C38.0808 76.2909 38.0695 76.1544 38.0827 76.0198C38.1055 75.8094 38.1168 75.5896 38.187 75.3943C38.3538 74.9281 38.8068 74.6987 39.2882 74.8162C39.4493 74.856 39.6048 74.9262 39.7526 75.0001C39.8834 75.0664 39.9118 75.1991 39.8455 75.3223C39.764 75.4758 39.6673 75.5118 39.5157 75.4531C39.4607 75.4322 39.4057 75.4095 39.3508 75.3943C38.9774 75.2939 38.695 75.4891 38.6684 75.8758C38.6571 76.0539 38.6665 76.2359 38.6665 76.433C38.894 76.433 39.1195 76.433 39.3432 76.433C39.5422 76.433 39.6161 76.5069 39.6161 76.7041C39.6161 76.9088 39.5441 76.9808 39.3337 76.9808C39.1157 76.9808 38.8978 76.9808 38.6627 76.9808V77.1343C38.6627 78.01 38.6627 78.8857 38.6627 79.7614C38.6627 80.0324 38.4997 80.1518 38.242 80.0684C38.1396 80.0362 38.0846 79.9604 38.0808 79.8524C38.0771 79.7595 38.079 79.6685 38.079 79.5756C38.079 78.7663 38.079 77.9588 38.079 77.1495C38.079 77.1002 38.079 77.0509 38.079 76.9827L38.0808 76.9808Z" fill="white"/>
<path d="M41.1024 76.4311C41.1024 76.2226 41.0986 76.0312 41.1024 75.8397C41.1081 75.6275 41.163 75.4265 41.2711 75.2427C41.4796 74.892 41.8606 74.7177 42.2719 74.8067C42.4406 74.8446 42.6036 74.9167 42.7609 74.9925C42.8955 75.0588 42.9296 75.1877 42.8689 75.3109C42.7893 75.4701 42.6889 75.5118 42.5334 75.4512C42.4785 75.4303 42.4235 75.4076 42.3685 75.3924C41.9989 75.2939 41.7203 75.4834 41.69 75.8625C41.6748 76.0444 41.6881 76.2302 41.6881 76.4311C41.908 76.4311 42.124 76.4311 42.3401 76.4311C42.5903 76.4311 42.7021 76.5884 42.6225 76.8292C42.5865 76.941 42.5012 76.9808 42.3894 76.9808C42.16 76.9808 41.9288 76.9808 41.6824 76.9808V77.1362C41.6824 78.0119 41.6786 78.8876 41.6843 79.7633C41.6862 80.0969 41.4796 80.1101 41.2597 80.0646C41.1384 80.04 41.0967 79.9339 41.0967 79.8125C41.0967 79.4903 41.0967 79.1681 41.0967 78.844C41.0967 78.2735 41.0967 77.7048 41.0967 77.1343V76.9808C40.9318 76.9808 40.7783 76.9808 40.6247 76.9808C40.4276 76.9808 40.3518 76.9012 40.3518 76.706C40.3518 76.5088 40.4276 76.433 40.6247 76.433C40.7745 76.433 40.9261 76.433 41.0986 76.433L41.1024 76.4311Z" fill="white"/>
<path d="M51.1913 76.9562C51.0132 76.9562 50.8502 76.9562 50.6891 76.9562C50.509 76.9543 50.4408 76.8766 50.4427 76.6851C50.4427 76.505 50.5147 76.433 50.6947 76.4311C50.8578 76.4311 51.0189 76.4311 51.1932 76.4311C51.1932 76.1487 51.1932 75.8777 51.1932 75.6047C51.1932 75.3432 51.4112 75.2105 51.65 75.3261C51.7448 75.3716 51.7733 75.455 51.7714 75.5554C51.7714 75.8398 51.7714 76.1241 51.7714 76.4292C51.8206 76.4292 51.8642 76.4292 51.9078 76.4292C52.1542 76.4292 52.4025 76.4273 52.6489 76.4292C52.8082 76.4292 52.8783 76.5088 52.8802 76.6756C52.8821 76.8652 52.8176 76.9505 52.6527 76.9524C52.3646 76.9562 52.0765 76.9524 51.7808 76.9524C51.7771 76.9941 51.7714 77.0244 51.7714 77.0566C51.7714 77.6973 51.7676 78.3379 51.7733 78.9805C51.7733 79.0866 51.796 79.1984 51.8377 79.297C51.9325 79.5188 52.1637 79.6211 52.412 79.5662C52.4802 79.551 52.5485 79.5245 52.6148 79.4998C52.7778 79.4373 52.8726 79.4714 52.956 79.6268C53.028 79.7614 53.0034 79.858 52.8498 79.949C52.4973 80.1594 52.1239 80.2447 51.7391 80.0514C51.3487 79.8543 51.2065 79.4922 51.197 79.0828C51.1819 78.4289 51.1913 77.775 51.1913 77.123C51.1913 77.0737 51.1913 77.0225 51.1913 76.9543V76.9562Z" fill="white"/>
<path d="M64.2718 76.905C64.433 76.6699 64.6415 76.4804 64.9258 76.3932C65.229 76.2984 65.5285 76.3117 65.8223 76.4349C65.9853 76.5031 66.0251 76.6245 65.9436 76.778C65.8394 76.9751 65.737 77.0244 65.5323 76.9258C65.1892 76.7609 64.7703 76.9012 64.5334 77.2272C64.3875 77.4281 64.3041 77.6423 64.3098 77.902C64.323 78.518 64.3136 79.134 64.3136 79.75C64.3136 80.0324 64.1581 80.148 63.8871 80.0684C63.7696 80.0343 63.726 79.9414 63.7241 79.8277C63.7203 79.6856 63.7241 79.5434 63.7241 79.4013C63.7241 78.5123 63.7241 77.6252 63.7241 76.7363C63.7241 76.6984 63.7127 76.6548 63.7279 76.6245C63.7601 76.5657 63.798 76.488 63.8511 76.469C63.9041 76.4501 64.0046 76.4747 64.0387 76.5164C64.1297 76.6339 64.196 76.7685 64.2756 76.9031L64.2718 76.905Z" fill="white"/>
<path d="M5.56677 77.4888C5.56677 78.2564 5.56677 79.0222 5.56677 79.7898C5.56677 79.8922 5.57245 80.0173 5.45873 80.0457C5.34311 80.0741 5.20854 80.0741 5.09671 80.04C5.04364 80.023 4.99436 79.8997 4.99246 79.8239C4.98109 79.4638 4.98677 79.1037 4.98677 78.7435C4.98677 77.557 4.98677 76.3705 4.98677 75.1858C4.98677 74.9186 5.22939 74.7802 5.46442 74.9148C5.5535 74.966 5.56677 75.0475 5.56677 75.1403C5.56677 75.8227 5.56677 76.5069 5.56677 77.1893C5.56677 77.2898 5.56677 77.3902 5.56677 77.4907V77.4888Z" fill="white"/>
<path d="M26.6459 77.4755C26.6459 78.2469 26.6459 79.0184 26.6459 79.7898C26.6459 79.8922 26.6516 80.0173 26.5378 80.0457C26.4222 80.0741 26.2876 80.0741 26.1758 80.04C26.1227 80.0229 26.0735 79.8997 26.0716 79.8239C26.0602 79.4884 26.0659 79.1529 26.0659 78.8175C26.0659 77.6063 26.0659 76.3951 26.0659 75.1839C26.0659 74.9148 26.3066 74.7783 26.5435 74.911C26.6326 74.9622 26.6478 75.0437 26.6459 75.1366C26.6459 75.7981 26.6459 76.4614 26.6459 77.1229C26.6459 77.2405 26.6459 77.358 26.6459 77.4755Z" fill="white"/>
<path d="M43.68 78.2545C43.68 77.7485 43.6876 77.2405 43.6762 76.7344C43.6686 76.4084 43.9188 76.3875 44.1349 76.4577C44.2486 76.4956 44.2714 76.6036 44.2714 76.7173C44.2714 77.576 44.2714 78.4346 44.2714 79.2932C44.2714 79.46 44.2714 79.6287 44.2714 79.7955C44.2695 79.9907 44.1823 80.076 43.9833 80.076C43.7672 80.076 43.6819 80.004 43.6819 79.8012C43.68 79.2856 43.6819 78.7701 43.6819 78.2545H43.68Z" fill="white"/>
<path d="M49.1121 78.2545C49.1121 77.7485 49.1197 77.2405 49.1083 76.7344C49.1007 76.4084 49.3528 76.3875 49.567 76.4577C49.6883 76.4975 49.7035 76.6131 49.7035 76.7287C49.7035 77.6044 49.7035 78.4801 49.7035 79.3558C49.7035 79.5074 49.7054 79.6571 49.7035 79.8088C49.6997 79.9926 49.6087 80.076 49.4154 80.0779C49.2031 80.0779 49.1159 80.0078 49.114 79.8145C49.1102 79.2951 49.114 78.7758 49.114 78.2564L49.1121 78.2545Z" fill="white"/>
<path d="M44.3189 75.3697C44.3189 75.6256 44.1938 75.762 43.955 75.7601C43.7237 75.7601 43.6005 75.6237 43.5986 75.3735C43.5986 75.1309 43.7218 74.9982 43.9512 74.9982C44.1919 74.9982 44.3189 75.1252 44.3189 75.3697Z" fill="white"/>
<path d="M49.0308 75.3678C49.0308 75.1233 49.1596 74.9944 49.4004 74.9982C49.6278 75.0001 49.751 75.1347 49.751 75.3754C49.751 75.6313 49.6221 75.7639 49.3814 75.7601C49.1521 75.7564 49.0308 75.6199 49.0327 75.3678H49.0308Z" fill="white"/>
</svg>
